<?xml version="1.0" encoding="UTF-8" standalone="no"?>
<!-- Created with Inkscape (http://www.inkscape.org/) -->

<svg
   xmlns:dc="http://purl.org/dc/elements/1.1/"
   xmlns:cc="http://creativecommons.org/ns#"
   xmlns:rdf="http://www.w3.org/1999/02/22-rdf-syntax-ns#"
   xmlns:svg="http://www.w3.org/2000/svg"
   xmlns="http://www.w3.org/2000/svg"
   xmlns:sodipodi="http://sodipodi.sourceforge.net/DTD/sodipodi-0.dtd"
   xmlns:inkscape="http://www.inkscape.org/namespaces/inkscape"
   version="1.1"
   id="svg34199"
   xml:space="preserve"
   width="580.75067"
   height="506.07199"
   viewBox="0 0 580.75067 506.07199"
   sodipodi:docname="iris-top-layer.svg"
   inkscape:version="0.92.2 5c3e80d, 2017-08-06"><metadata
     id="metadata34205"><rdf:RDF><cc:Work
         rdf:about=""><dc:format>image/svg+xml</dc:format><dc:type
           rdf:resource="http://purl.org/dc/dcmitype/StillImage" /><dc:title></dc:title></cc:Work></rdf:RDF></metadata><defs
     id="defs34203"><clipPath
       clipPathUnits="userSpaceOnUse"
       id="clipPath34215"><path
         d="M 0,379.554 H 435.563 V 0 H 0 Z"
         id="path34213"
         inkscape:connector-curvature="0" /></clipPath></defs><sodipodi:namedview
     pagecolor="#ffffff"
     bordercolor="#666666"
     borderopacity="1"
     objecttolerance="10"
     gridtolerance="10"
     guidetolerance="10"
     inkscape:pageopacity="0"
     inkscape:pageshadow="2"
     inkscape:window-width="640"
     inkscape:window-height="480"
     id="namedview34201"
     showgrid="false"
     inkscape:zoom="0.46633681"
     inkscape:cx="290.37534"
     inkscape:cy="253.036"
     inkscape:window-x="0"
     inkscape:window-y="0"
     inkscape:window-maximized="0"
     inkscape:current-layer="g34207" /><g
     id="g34207"
     inkscape:groupmode="layer"
     inkscape:label="iris-top-layer"
     transform="matrix(1.3333333,0,0,-1.3333333,0,506.072)"><g
       id="g34209"><g
         id="g34211"
         clip-path="url(#clipPath34215)"><g
           id="g34217"
           transform="translate(11.7683,105.0458)"><path
             d="m 0,0 c 0,-1.644 -1.333,-2.976 -2.976,-2.976 -1.644,0 -2.977,1.332 -2.977,2.976 0,1.644 1.333,2.976 2.977,2.976 C -1.333,2.976 0,1.644 0,0 Z"
             style="fill:none;stroke:#c62027;stroke-width:0.57599998;stroke-linecap:round;stroke-linejoin:round;stroke-miterlimit:4;stroke-dasharray:none;stroke-opacity:1"
             id="path34219"
             inkscape:connector-curvature="0" /></g><g
           id="g34221"
           transform="translate(198.7683,52.2382)"><path
             d="m 0,0 c 0,-1.644 -1.333,-2.976 -2.976,-2.976 -1.644,0 -2.977,1.332 -2.977,2.976 0,1.644 1.333,2.976 2.977,2.976 C -1.333,2.976 0,1.644 0,0 Z"
             style="fill:none;stroke:#c62027;stroke-width:0.57599998;stroke-linecap:round;stroke-linejoin:round;stroke-miterlimit:4;stroke-dasharray:none;stroke-opacity:1"
             id="path34223"
             inkscape:connector-curvature="0" /></g><g
           id="g34225"
           transform="translate(360.3791,8.7919)"><path
             d="m 0,0 c 0,-1.644 -1.333,-2.976 -2.976,-2.976 -1.644,0 -2.977,1.332 -2.977,2.976 0,1.644 1.333,2.976 2.977,2.976 C -1.333,2.976 0,1.644 0,0 Z"
             style="fill:none;stroke:#c62027;stroke-width:0.57599998;stroke-linecap:round;stroke-linejoin:round;stroke-miterlimit:4;stroke-dasharray:none;stroke-opacity:1"
             id="path34227"
             inkscape:connector-curvature="0" /></g><g
           id="g34229"
           transform="translate(429.7463,129.06)"><path
             d="m 0,0 c 0,-1.644 -1.333,-2.976 -2.976,-2.976 -1.644,0 -2.977,1.332 -2.977,2.976 0,1.644 1.333,2.976 2.977,2.976 C -1.333,2.976 0,1.644 0,0 Z"
             style="fill:none;stroke:#c62027;stroke-width:0.57599998;stroke-linecap:round;stroke-linejoin:round;stroke-miterlimit:4;stroke-dasharray:none;stroke-opacity:1"
             id="path34231"
             inkscape:connector-curvature="0" /></g><g
           id="g34233"
           transform="translate(352.7756,341.3637)"><path
             d="m 0,0 c 0,-1.644 -1.333,-2.976 -2.976,-2.976 -1.644,0 -2.977,1.332 -2.977,2.976 0,1.644 1.333,2.976 2.977,2.976 C -1.333,2.976 0,1.644 0,0 Z"
             style="fill:none;stroke:#c62027;stroke-width:0.57599998;stroke-linecap:round;stroke-linejoin:round;stroke-miterlimit:4;stroke-dasharray:none;stroke-opacity:1"
             id="path34235"
             inkscape:connector-curvature="0" /></g><g
           id="g34237"
           transform="translate(290.272,364.3997)"><path
             d="m 0,0 c 0,-1.644 -1.333,-2.976 -2.976,-2.976 -1.644,0 -2.977,1.332 -2.977,2.976 0,1.644 1.333,2.976 2.977,2.976 C -1.333,2.976 0,1.644 0,0 Z"
             style="fill:none;stroke:#c62027;stroke-width:0.57599998;stroke-linecap:round;stroke-linejoin:round;stroke-miterlimit:4;stroke-dasharray:none;stroke-opacity:1"
             id="path34239"
             inkscape:connector-curvature="0" /></g><g
           id="g34241"
           transform="translate(155.272,366.0663)"><path
             d="m 0,0 c 0,-1.644 -1.333,-2.976 -2.976,-2.976 -1.644,0 -2.977,1.332 -2.977,2.976 0,1.644 1.333,2.976 2.977,2.976 C -1.333,2.976 0,1.644 0,0 Z"
             style="fill:none;stroke:#c62027;stroke-width:0.57599998;stroke-linecap:round;stroke-linejoin:round;stroke-miterlimit:4;stroke-dasharray:none;stroke-opacity:1"
             id="path34243"
             inkscape:connector-curvature="0" /></g><g
           id="g34245"
           transform="translate(11.7683,336.0678)"><path
             d="m 0,0 c 0,-1.644 -1.333,-2.976 -2.976,-2.976 -1.644,0 -2.977,1.332 -2.977,2.976 0,1.644 1.333,2.976 2.977,2.976 C -1.333,2.976 0,1.644 0,0 Z"
             style="fill:none;stroke:#c62027;stroke-width:0.57599998;stroke-linecap:round;stroke-linejoin:round;stroke-miterlimit:4;stroke-dasharray:none;stroke-opacity:1"
             id="path34247"
             inkscape:connector-curvature="0" /></g><g
           id="g34249"
           transform="translate(385.5157,156.066)"><path
             d="m 0,0 c 0,-1.644 -1.333,-2.976 -2.976,-2.976 -1.644,0 -2.977,1.332 -2.977,2.976 0,1.644 1.333,2.976 2.977,2.976 C -1.333,2.976 0,1.644 0,0 Z"
             style="fill:none;stroke:#c62027;stroke-width:0.57599998;stroke-linecap:round;stroke-linejoin:round;stroke-miterlimit:4;stroke-dasharray:none;stroke-opacity:1"
             id="path34251"
             inkscape:connector-curvature="0" /></g><g
           id="g34253"
           transform="translate(352.7756,202.7927)"><path
             d="m 0,0 c 0,-1.644 -1.333,-2.976 -2.976,-2.976 -1.644,0 -2.977,1.332 -2.977,2.976 0,1.644 1.333,2.976 2.977,2.976 C -1.333,2.976 0,1.644 0,0 Z"
             style="fill:none;stroke:#c62027;stroke-width:0.57599998;stroke-linecap:round;stroke-linejoin:round;stroke-miterlimit:4;stroke-dasharray:none;stroke-opacity:1"
             id="path34255"
             inkscape:connector-curvature="0" /></g><g
           id="g34257"
           transform="translate(341.2956,201.2999)"><path
             d="m 0,0 v 131.587 c 0,2.137 -1.21,4.077 -3.109,5.057 -77.13,39.789 -191.747,25.984 -316.672,-7.265 -2.486,-0.661 -4.219,-2.919 -4.219,-5.491 V -82.091 c 0,-3.125 2.534,-5.659 5.659,-5.659 h 175.683 c 3.125,0 5.658,-2.533 5.658,-5.658 v -43.433 c 0,-2.842 2.106,-5.232 4.921,-5.621 41.773,-5.779 85.307,-5.434 140.23,-35.699 2.7,-1.487 6.097,-0.551 7.637,2.119 l 55.248,95.789 c 1.56,2.705 0.633,6.161 -2.064,7.733 C 25.213,-47.012 0,-28.521 0,0 Z"
             style="fill:none;stroke:#d72227;stroke-width:0.57599998;stroke-linecap:round;stroke-linejoin:round;stroke-miterlimit:4;stroke-dasharray:none;stroke-opacity:1"
             id="path34259"
             inkscape:connector-curvature="0" /></g><g
           id="g34261"
           transform="translate(357.4027,0.288)"><path
             d="m 0,0 c -1.479,0 -2.947,0.386 -4.251,1.139 l -7.367,4.252 c -44.287,25.556 -80.755,29.623 -116.022,33.555 -9.195,1.026 -18.674,2.083 -28.017,3.499 l -7.231,1.098 c -4.156,0.631 -7.227,4.204 -7.227,8.407 v 35.804 c 0,4.694 -3.805,8.5 -8.5,8.5 h -169.996 c -4.696,0 -8.504,3.807 -8.504,8.504 V 335.78 c 0,3.845 2.581,7.212 6.294,8.212 l 6.294,1.694 c 83.241,22.402 150.993,33.292 207.129,33.292 52.284,0 94.61,-9.163 129.394,-28.013 l 4.452,-2.413 C -0.808,347.066 0.9,344.196 0.9,341.076 V 201.012 c 0,-19.587 20.162,-34.533 65.358,-60.625 l 7.361,-4.25 c 4.066,-2.348 5.46,-7.546 3.114,-11.614 L 7.366,4.255 C 6.239,2.301 4.382,0.875 2.203,0.29 1.479,0.096 0.738,0 0,0 Z"
             style="fill:none;stroke:#d72227;stroke-width:0.57599998;stroke-linecap:round;stroke-linejoin:round;stroke-miterlimit:4;stroke-dasharray:none;stroke-opacity:1"
             id="path34263"
             inkscape:connector-curvature="0" /></g></g></g></g></svg>