<?xml version="1.0" encoding="UTF-8" standalone="no"?>
<!-- Created with Inkscape (http://www.inkscape.org/) -->

<svg
   xmlns:dc="http://purl.org/dc/elements/1.1/"
   xmlns:cc="http://creativecommons.org/ns#"
   xmlns:rdf="http://www.w3.org/1999/02/22-rdf-syntax-ns#"
   xmlns:svg="http://www.w3.org/2000/svg"
   xmlns="http://www.w3.org/2000/svg"
   xmlns:sodipodi="http://sodipodi.sourceforge.net/DTD/sodipodi-0.dtd"
   xmlns:inkscape="http://www.inkscape.org/namespaces/inkscape"
   version="1.1"
   id="svg5145"
   xml:space="preserve"
   width="688.92572"
   height="533.6676"
   viewBox="0 0 688.92572 533.66761"
   sodipodi:docname="iris2-middle-layer-tent.svg"
   inkscape:version="0.92.2 5c3e80d, 2017-08-06"><metadata
     id="metadata5151"><rdf:RDF><cc:Work
         rdf:about=""><dc:format>image/svg+xml</dc:format><dc:type
           rdf:resource="http://purl.org/dc/dcmitype/StillImage" /><dc:title></dc:title></cc:Work></rdf:RDF></metadata><defs
     id="defs5149"><clipPath
       clipPathUnits="userSpaceOnUse"
       id="clipPath5161"><path
         d="M 0,379.261 H 479.304 V 0 H 0 Z"
         id="path5159"
         inkscape:connector-curvature="0" /></clipPath></defs><sodipodi:namedview
     pagecolor="#ffffff"
     bordercolor="#666666"
     borderopacity="1"
     objecttolerance="10"
     gridtolerance="10"
     guidetolerance="10"
     inkscape:pageopacity="0"
     inkscape:pageshadow="2"
     inkscape:window-width="1230"
     inkscape:window-height="884"
     id="namedview5147"
     showgrid="false"
     inkscape:zoom="1.3200187"
     inkscape:cx="397.44619"
     inkscape:cy="233.03433"
     inkscape:window-x="0"
     inkscape:window-y="0"
     inkscape:window-maximized="0"
     inkscape:current-layer="g5153"
     fit-margin-top="0"
     fit-margin-left="0"
     fit-margin-right="0"
     fit-margin-bottom="0" /><g
     id="g5153"
     inkscape:groupmode="layer"
     inkscape:label="iris-middle-layer-tent"
     transform="matrix(1.3333333,0,0,-1.3333333,1.333168e-4,500.6674)"><g
       id="g5163"
       transform="translate(54.3917,107.4993)"><path
         d="m 0,0 c 0,-2.63 -2.132,-4.762 -4.762,-4.762 -2.63,0 -4.762,2.132 -4.762,4.762 0,2.63 2.132,4.762 4.762,4.762 C -2.132,4.762 0,2.63 0,0 Z"
         style="fill:none;stroke:#046195;stroke-width:0.57599998;stroke-linecap:round;stroke-linejoin:round;stroke-miterlimit:4;stroke-dasharray:none;stroke-opacity:1"
         id="path5165"
         inkscape:connector-curvature="0" /></g><g
       id="g5167"
       transform="translate(240.8292,54.0195)"><path
         d="m 0,0 c 0,-2.63 -2.132,-4.762 -4.762,-4.762 -2.63,0 -4.762,2.132 -4.762,4.762 0,2.63 2.132,4.762 4.762,4.762 C -2.132,4.762 0,2.63 0,0 Z"
         style="fill:none;stroke:#046195;stroke-width:0.57599998;stroke-linecap:round;stroke-linejoin:round;stroke-miterlimit:4;stroke-dasharray:none;stroke-opacity:1"
         id="path5169"
         inkscape:connector-curvature="0" /></g><g
       id="g5171"
       transform="translate(442.50366,-12.558823)"><path
         d="m 0,0 c 0,-2.63 -2.132,-4.762 -4.762,-4.762 -2.63,0 -4.762,2.132 -4.762,4.762 0,2.63 2.132,4.762 4.762,4.762 C -2.132,4.762 0,2.63 0,0 Z"
         style="fill:none;stroke:#046195;stroke-width:0.57599998;stroke-linecap:round;stroke-linejoin:round;stroke-miterlimit:4;stroke-dasharray:none;stroke-opacity:1"
         id="path5173"
         inkscape:connector-curvature="0" /></g><g
       id="g5175"
       transform="translate(509.23276,103.35778)"><path
         d="m 0,0 c 0,-2.63 -2.132,-4.762 -4.762,-4.762 -2.63,0 -4.762,2.132 -4.762,4.762 0,2.63 2.132,4.762 4.762,4.762 C -2.132,4.762 0,2.63 0,0 Z"
         style="fill:none;stroke:#046195;stroke-width:0.57599998;stroke-linecap:round;stroke-linejoin:round;stroke-miterlimit:4;stroke-dasharray:none;stroke-opacity:1"
         id="path5177"
         inkscape:connector-curvature="0" /></g><g
       id="g5179"
       transform="translate(391.5792,340.6555)"><path
         d="m 0,0 c 0,-2.63 -2.132,-4.762 -4.762,-4.762 -2.63,0 -4.762,2.132 -4.762,4.762 0,2.63 2.132,4.762 4.762,4.762 C -2.132,4.762 0,2.63 0,0 Z"
         style="fill:none;stroke:#046195;stroke-width:0.57599998;stroke-linecap:round;stroke-linejoin:round;stroke-miterlimit:4;stroke-dasharray:none;stroke-opacity:1"
         id="path5181"
         inkscape:connector-curvature="0" /></g><g
       id="g5183"
       transform="translate(333.3055,363.8593)"><path
         d="m 0,0 c 0,-2.63 -2.132,-4.762 -4.762,-4.762 -2.63,0 -4.762,2.132 -4.762,4.762 0,2.63 2.132,4.762 4.762,4.762 C -2.132,4.762 0,2.63 0,0 Z"
         style="fill:none;stroke:#046195;stroke-width:0.57599998;stroke-linecap:round;stroke-linejoin:round;stroke-miterlimit:4;stroke-dasharray:none;stroke-opacity:1"
         id="path5185"
         inkscape:connector-curvature="0" /></g><g
       id="g5187"
       transform="translate(191.9125,365.6451)"><path
         d="m 0,0 c 0,-2.63 -2.132,-4.762 -4.762,-4.762 -2.63,0 -4.762,2.132 -4.762,4.762 0,2.63 2.132,4.762 4.762,4.762 C -2.132,4.762 0,2.63 0,0 Z"
         style="fill:none;stroke:#046195;stroke-width:0.57599998;stroke-linecap:round;stroke-linejoin:round;stroke-miterlimit:4;stroke-dasharray:none;stroke-opacity:1"
         id="path5189"
         inkscape:connector-curvature="0" /></g><g
       id="g5191"
       transform="translate(53.8292,335.0618)"><path
         d="m 0,0 c 0,-2.63 -2.132,-4.762 -4.762,-4.762 -2.63,0 -4.762,2.132 -4.762,4.762 0,2.63 2.132,4.762 4.762,4.762 C -2.132,4.762 0,2.63 0,0 Z"
         style="fill:none;stroke:#046195;stroke-width:0.57599998;stroke-linecap:round;stroke-linejoin:round;stroke-miterlimit:4;stroke-dasharray:none;stroke-opacity:1"
         id="path5193"
         inkscape:connector-curvature="0" /></g><g
       id="g5195"
       transform="translate(427.3551,154.8958)"><path
         d="m 0,0 c 0,-2.63 -2.132,-4.762 -4.762,-4.762 -2.63,0 -4.762,2.132 -4.762,4.762 0,2.63 2.132,4.762 4.762,4.762 C -2.132,4.762 0,2.63 0,0 Z"
         style="fill:none;stroke:#046195;stroke-width:0.57599998;stroke-linecap:round;stroke-linejoin:round;stroke-miterlimit:4;stroke-dasharray:none;stroke-opacity:1"
         id="path5197"
         inkscape:connector-curvature="0" /></g><g
       id="g5199"
       transform="translate(392.8292,204.6451)"><path
         d="m 0,0 c 0,-2.63 -2.132,-4.762 -4.762,-4.762 -2.63,0 -4.762,2.132 -4.762,4.762 0,2.63 2.132,4.762 4.762,4.762 C -2.132,4.762 0,2.63 0,0 Z"
         style="fill:none;stroke:#046195;stroke-width:0.57599998;stroke-linecap:round;stroke-linejoin:round;stroke-miterlimit:4;stroke-dasharray:none;stroke-opacity:1"
         id="path5201"
         inkscape:connector-curvature="0" /></g><g
       id="g5203"
       transform="translate(425.1439,274.0341)"><path
         d="m 0,0 c 0,-5.205 -4.22,-9.425 -9.425,-9.425 -5.206,0 -9.425,4.22 -9.425,9.425 0,5.205 4.219,9.425 9.425,9.425 C -4.22,9.425 0,5.205 0,0 Z"
         style="fill:none;stroke:#046195;stroke-width:0.57599998;stroke-linecap:round;stroke-linejoin:round;stroke-miterlimit:4;stroke-dasharray:none;stroke-opacity:1"
         id="path5205"
         inkscape:connector-curvature="0" /></g><g
       id="g5207"
       transform="translate(28.847,298.4742)"><path
         d="m 0,0 c 0,-5.205 -4.22,-9.425 -9.425,-9.425 -5.206,0 -9.425,4.22 -9.425,9.425 0,5.205 4.219,9.425 9.425,9.425 C -4.22,9.425 0,5.205 0,0 Z"
         style="fill:none;stroke:#046195;stroke-width:0.57599998;stroke-linecap:round;stroke-linejoin:round;stroke-miterlimit:4;stroke-dasharray:none;stroke-opacity:1"
         id="path5209"
         inkscape:connector-curvature="0" /></g><g
       id="g5211"
       transform="translate(28.8471,140.7084)"><path
         d="m 0,0 c 0,-5.205 -4.22,-9.425 -9.425,-9.425 -5.206,0 -9.425,4.22 -9.425,9.425 0,5.205 4.219,9.425 9.425,9.425 C -4.22,9.425 0,5.205 0,0 Z"
         style="fill:none;stroke:#046195;stroke-width:0.57599998;stroke-linecap:round;stroke-linejoin:round;stroke-miterlimit:4;stroke-dasharray:none;stroke-opacity:1"
         id="path5213"
         inkscape:connector-curvature="0" /></g><g
       id="g5215"
       transform="translate(505.16536,27.916677)"><path
         d="m 0,0 c 0,-5.205 -4.22,-9.425 -9.425,-9.425 -5.206,0 -9.425,4.22 -9.425,9.425 0,5.205 4.219,9.425 9.425,9.425 C -4.22,9.425 0,5.205 0,0 Z"
         style="fill:none;stroke:#046195;stroke-width:0.57599998;stroke-linecap:round;stroke-linejoin:round;stroke-miterlimit:4;stroke-dasharray:none;stroke-opacity:1"
         id="path5217"
         inkscape:connector-curvature="0" /></g><g
       id="g5219"
       transform="translate(415.9933,293.1679)"><path
         d="m 0,0 h -8.086 c -6.257,0 -11.329,5.072 -11.331,11.329 l -0.005,36.862 c 0,1.56 -0.428,3.058 -1.198,4.351 -0.77,1.293 -1.883,2.382 -3.255,3.126 l -2.226,1.206 -2.226,1.206 c -10.394,5.633 -21.463,10.401 -33.27,14.317 -8.842,2.933 -18.098,5.388 -27.795,7.372 l -4.888,0.906 c -2.608,0.484 -5.016,-1.519 -5.016,-4.171 v -3.552 -5.128 c 0,-2.044 1.461,-3.782 3.467,-4.168 9.641,-1.857 18.94,-4.214 27.864,-7.112 9.989,-3.245 19.51,-7.166 28.519,-11.82 0.932,-0.482 1.686,-1.21 2.207,-2.079 0.521,-0.869 0.809,-1.881 0.809,-2.93 v -65.794 -65.793 c 0,-4.79 0.721,-9.295 2.119,-13.598 1.135,-3.493 5.876,-3.992 7.712,-0.811 l 6.624,11.471 c 0.387,0.672 0.589,1.436 0.564,2.211 -0.007,0.241 -0.011,0.483 -0.011,0.726 l 0.011,42.257 c 0.001,6.268 5.083,11.348 11.351,11.348 h 8.058 c 10.417,0 18.861,8.445 18.861,18.861 v 0.548 C 18.859,-8.444 10.416,0 0,0 Z"
         style="fill:none;stroke:#046195;stroke-width:0.57599998;stroke-linecap:round;stroke-linejoin:round;stroke-miterlimit:4;stroke-dasharray:none;stroke-opacity:1"
         id="path5221"
         inkscape:connector-curvature="0" /></g><g
       id="g5223"
       transform="translate(458.5519,100.7847)"><path
         d="m 42.863572,-24.745864 13.852,24.02199964 c 1.173,2.03399996 1.411,4.34999996 0.847,6.45199996 -0.563,2.101 -1.929,3.988 -3.962,5.1620004 l -3.68,2.125 -3.681,2.125 C 29.216572,24.968136 -27.105,57.958 -37.281,65.466 c -2.038,1.504 -4.926,0.893 -6.193,-1.301 -1.354,-2.344 -3.018,-5.226 -4.273,-7.4 -1.079,-1.868 -0.584,-4.243 1.155,-5.52 10.078,-7.4 65.202572,-39.700864 79.439572,-47.9998644 1.348,-0.786 2.254,-2.043 2.628,-3.44199996 0.374,-1.39900004 0.216,-2.93900004 -0.564,-4.29100004 L 7.2865724,-52.381864 -20.337428,-100.27686 c -0.77,-1.335 -2.004,-2.237 -3.383,-2.619 -1.38,-0.382 -2.904,-0.244 -4.254,0.5 -27.461,15.131996 -94.938572,47.35786 -117.909572,51.77786 -22.97,4.419 -44.297,5.777 -65.183,8.666 -1.408,0.195 -2.638,0.89 -3.517,1.891 -0.878,1.002 -1.405,2.31 -1.405,3.731 v 21.716 21.717 c 0,1.562 -0.633,2.977 -1.657,4.001 -1.024,1.023 -2.438,1.657 -4,1.657 h -87.842 -87.841 c -1.563,0 -2.978,0.633 -4.002,1.657 -1.024,1.024 -1.658,2.439 -1.658,4.002 v 102.989 102.989 c 0,1.286 0.434,2.494 1.177,3.463 0.744,0.968 1.799,1.698 3.042,2.029 24.301,6.468 48.212,12.199 71.533,16.944 21.996,4.474 43.466,8.071 64.244,10.579 2.14,0.258 3.749,2.065 3.749,4.221 v 2.377 6.156 c 0,1.28 -0.56,2.413 -1.437,3.189 -0.877,0.775 -2.072,1.193 -3.343,1.041 -20.997,-2.508 -43.355,-6.181 -67.207,-11.042 -23.853,-4.861 -49.201,-10.911 -76.177,-18.171 l -3.147,-0.847 -3.147,-0.847 c -1.857,-0.499 -3.43,-1.591 -4.54,-3.038 -1.109,-1.447 -1.754,-3.251 -1.754,-5.173 v -7.116 c 0,-6.263 -5.077,-11.34 -11.34,-11.34 h -8.089 c -10.404,0 -18.839,-8.434 -18.839,-18.838 v -0.571 c 0,-10.415 8.443,-18.858 18.858,-18.858 h 8.062 c 6.267,0 11.348,-5.081 11.348,-11.348 v -47.44 -49.367 c 0,-6.265 -5.079,-11.343 -11.344,-11.343 h -8.085 c -10.404,0 -18.839,-8.435 -18.839,-18.839 v -0.571 c 0,-10.415 8.443,-18.858 18.858,-18.858 h 8.076 c 6.26,0 11.334,-5.074 11.334,-11.334 V 4.257 c 0,-2.349 0.952,-4.475 2.491,-6.014 1.539,-1.538 3.664,-2.49 6.013,-2.49 h 84.998 84.998 c 2.347,0 4.472,-0.952 6.01,-2.49 1.538,-1.538 2.49,-3.663 2.49,-6.01 v -17.902 -17.902 c 0,-2.102 0.768,-4.046 2.055,-5.543 1.287,-1.498 3.094,-2.548 5.172,-2.864 l 3.615,-0.549 3.616,-0.549 c 4.671,-0.708 9.376,-1.326 14.063,-1.896 4.687,-0.569 9.356,-1.09 13.953,-1.603 17.634,-1.966 35.568,-3.966 54.629,-8.669 19.061,-4.702 82.113572,-36.85386 104.256572,-49.63286 l 3.684,-2.126 3.684,-2.125 c 0.651,-0.377 1.344,-0.662 2.059,-0.852 0.715,-0.191 1.452,-0.287 2.192,-0.287 0.369,0 0.738,0.024 1.106,0.072 0.368,0.048 0.734,0.121 1.097,0.218 1.089,0.292 2.098,0.795 2.976,1.469 0.877,0.674 1.623,1.519 2.187,2.496 l 18.0430004,31.282996 c 3.131,5.429 10.0719996,7.29 15.4999996,4.157 l 6.987,-4.034 c 9.011,-5.203 20.532,-2.115 25.734,6.895 l 0.286,0.495 c 5.207,9.019 2.116,20.553 -6.903,25.76 l -6.99,4.036 c -5.424,3.131 -7.284,10.066 -4.155,15.492 z"
         style="fill:none;stroke:#046195;stroke-width:0.57599998;stroke-linecap:round;stroke-linejoin:round;stroke-miterlimit:4;stroke-dasharray:none;stroke-opacity:1"
         id="path5225"
         inkscape:connector-curvature="0"
         sodipodi:nodetypes="cccccccccccsccccccccscscscssscsccccscscccccccssssssssscssssssssscscssscscccccccccccsscccccccccccc" /></g></g></svg>