<?xml version="1.0" encoding="UTF-8" standalone="no"?>
<!-- Created with Inkscape (http://www.inkscape.org/) -->

<svg
   xmlns:dc="http://purl.org/dc/elements/1.1/"
   xmlns:cc="http://creativecommons.org/ns#"
   xmlns:rdf="http://www.w3.org/1999/02/22-rdf-syntax-ns#"
   xmlns:svg="http://www.w3.org/2000/svg"
   xmlns="http://www.w3.org/2000/svg"
   xmlns:sodipodi="http://sodipodi.sourceforge.net/DTD/sodipodi-0.dtd"
   xmlns:inkscape="http://www.inkscape.org/namespaces/inkscape"
   version="1.1"
   id="svg33926"
   xml:space="preserve"
   width="637.88788"
   height="533.6554"
   viewBox="0 0 637.88788 533.6554"
   sodipodi:docname="iris2-middle-layer.svg"
   inkscape:version="0.92.2 5c3e80d, 2017-08-06"><metadata
     id="metadata33932"><rdf:RDF><cc:Work
         rdf:about=""><dc:format>image/svg+xml</dc:format><dc:type
           rdf:resource="http://purl.org/dc/dcmitype/StillImage" /><dc:title></dc:title></cc:Work></rdf:RDF></metadata><defs
     id="defs33930" /><sodipodi:namedview
     pagecolor="#ffffff"
     bordercolor="#666666"
     borderopacity="1"
     objecttolerance="10"
     gridtolerance="10"
     guidetolerance="10"
     inkscape:pageopacity="0"
     inkscape:pageshadow="2"
     inkscape:window-width="1132"
     inkscape:window-height="906"
     id="namedview33928"
     showgrid="false"
     inkscape:zoom="0.93339415"
     inkscape:cx="354.65031"
     inkscape:cy="237.62373"
     inkscape:window-x="0"
     inkscape:window-y="0"
     inkscape:window-maximized="0"
     inkscape:current-layer="g33934"
     fit-margin-top="0"
     fit-margin-left="0"
     fit-margin-right="0"
     fit-margin-bottom="0" /><g
     id="g33934"
     inkscape:groupmode="layer"
     inkscape:label="iris-middle-layer"
     transform="matrix(1.3333333,0,0,-1.3333333,-5.3335208e-4,500.66119)"><g
       id="g33944"
       transform="translate(434.9789,131.2585)"><path
         d="m 42.862186,-24.745664 c -0.564,2.102 -1.929,3.988 -3.962,5.162 l -3.68,2.125 -3.681,2.125 C 14.520186,-5.5076644 -41.797,27.48 -51.972,34.987 c -2.043,1.507 -4.938,0.892 -6.208,-1.307 l -4.254,-7.366 c -1.084,-1.878 -0.589,-4.271 1.159,-5.554 10.074,-7.396 65.1921856,-39.693664 79.422186,-47.988664 1.348,-0.786 2.254,-2.043 2.628,-3.442 0.374,-1.398 0.215,-2.939 -0.564,-4.291 l -27.6250004,-47.894 -27.6239996,-47.894996 c -0.77,-1.335 -2.004,-2.237 -3.383,-2.619 -1.38,-0.382 -2.904,-0.244 -4.254,0.5 -27.461,15.133 -94.937186,47.35866 -117.908186,51.77766 -22.97,4.419 -44.297,5.777 -65.184,8.666 -1.407,0.195 -2.638,0.89 -3.516,1.891 -0.878,1.002 -1.405,2.31 -1.405,3.731 v 21.716 21.717 c 0,1.562 -0.633,2.977 -1.657,4.001 -1.024,1.024 -2.438,1.657 -4.001,1.657 h -87.841 -87.842 c -1.562,0 -2.977,0.633 -4.001,1.657 -1.024,1.025 -1.658,2.439 -1.658,4.002 V 90.935 193.924 c 0,1.287 0.433,2.494 1.177,3.463 0.744,0.968 1.799,1.698 3.042,2.029 24.301,6.468 48.212,12.199 71.533,16.944 21.995,4.474 43.466,8.071 64.243,10.579 2.141,0.258 3.75,2.065 3.75,4.221 v 2.377 6.156 c 0,1.28 -0.56,2.413 -1.437,3.189 -0.878,0.776 -2.073,1.193 -3.344,1.041 -20.996,-2.508 -43.354,-6.181 -67.206,-11.042 -23.853,-4.861 -49.201,-10.91 -76.177,-18.17 l -3.147,-0.847 -3.147,-0.847 c -1.857,-0.5 -3.431,-1.592 -4.54,-3.039 -1.109,-1.447 -1.754,-3.25 -1.754,-5.173 V 89.294 -26.217 c 0,-2.348 0.951,-4.474 2.49,-6.013 1.539,-1.539 3.665,-2.491 6.014,-2.491 h 84.998 84.998 c 2.347,0 4.472,-0.952 6.01,-2.49 1.538,-1.538 2.49,-3.663 2.49,-6.01 v -17.902 -17.902 c 0,-2.102 0.767,-4.046 2.055,-5.543 1.287,-1.497 3.094,-2.548 5.171,-2.864 l 3.616,-0.549 3.616,-0.549 c 4.671,-0.708 9.376,-1.326 14.063,-1.896 4.687,-0.569 9.356,-1.09 13.953,-1.603 17.634,-1.966 35.568,-3.966 54.629,-8.669 19.061,-4.702 82.112186,-36.85366 104.255186,-49.63166 l 3.684,-2.126 3.683,-2.126 c 0.652,-0.377 1.345,-0.661 2.06,-0.852 0.715,-0.191 1.452,-0.287 2.191,-0.287 0.37,0 0.739,0.024 1.107,0.072 0.368,0.048 0.734,0.121 1.096,0.218 1.09,0.292 2.099,0.795 2.976,1.469 0.878,0.674 1.624,1.519 2.188,2.496 l 34.6829996,60.133996 34.6840004,60.134 c 1.173,2.034 1.411,4.35 0.847,6.452 z"
         style="fill:none;stroke:#815da8;stroke-width:0.56699997;stroke-linecap:round;stroke-linejoin:round;stroke-miterlimit:4;stroke-dasharray:none;stroke-opacity:1"
         id="path33946"
         inkscape:connector-curvature="0"
         sodipodi:nodetypes="scccccccccccccccccscssscscscsccccscsccccccsscssscssscsccccccccccssscccccs" /></g><g
       id="g33948"
       transform="translate(358.2986,201.2952)"><path
         d="m 0,0 v 70.032 70.032 c 0,1.56 -0.427,3.058 -1.197,4.351 -0.77,1.293 -1.884,2.382 -3.255,3.126 l -2.226,1.206 -2.226,1.206 c -10.395,5.633 -21.464,10.4 -33.271,14.317 -8.842,2.932 -18.098,5.387 -27.795,7.372 l -4.888,0.906 c -2.608,0.483 -5.015,-1.519 -5.015,-4.172 v -3.551 -5.129 c 0,-2.043 1.46,-3.781 3.467,-4.167 9.641,-1.857 18.939,-4.214 27.863,-7.113 9.99,-3.244 19.511,-7.166 28.519,-11.82 0.933,-0.481 1.687,-1.209 2.208,-2.078 0.521,-0.87 0.808,-1.881 0.808,-2.931 V 65.794 0 c 0,-4.79 0.721,-9.295 2.12,-13.598 1.135,-3.493 5.875,-3.991 7.712,-0.811 l 6.623,11.472 c 0.388,0.671 0.59,1.436 0.565,2.21 C 0.004,-0.485 0,-0.243 0,0 Z"
         style="fill:none;stroke:#815da8;stroke-width:0.56699997;stroke-linecap:butt;stroke-linejoin:miter;stroke-miterlimit:4;stroke-dasharray:none;stroke-opacity:1"
         id="path33950"
         inkscape:connector-curvature="0" /></g><g
       id="g33952"
       transform="translate(16.1194,107.4993)"><path
         d="m 0,0 c 0,-2.63 -2.132,-4.762 -4.762,-4.762 -2.63,0 -4.762,2.132 -4.762,4.762 0,2.63 2.132,4.762 4.762,4.762 C -2.132,4.762 0,2.63 0,0 Z"
         style="fill:none;stroke:#046195;stroke-width:0.57599998;stroke-linecap:round;stroke-linejoin:round;stroke-miterlimit:4;stroke-dasharray:none;stroke-opacity:1"
         id="path33954"
         inkscape:connector-curvature="0" /></g><g
       id="g33956"
       transform="translate(202.5569,54.0195)"><path
         d="m 0,0 c 0,-2.63 -2.132,-4.762 -4.762,-4.762 -2.63,0 -4.762,2.132 -4.762,4.762 0,2.63 2.132,4.762 4.762,4.762 C -2.132,4.762 0,2.63 0,0 Z"
         style="fill:none;stroke:#046195;stroke-width:0.57599998;stroke-linecap:round;stroke-linejoin:round;stroke-miterlimit:4;stroke-dasharray:none;stroke-opacity:1"
         id="path33958"
         inkscape:connector-curvature="0" /></g><g
       id="g33960"
       transform="translate(404.23311,-12.558823)"><path
         d="m 0,0 c 0,-2.63 -2.132,-4.762 -4.762,-4.762 -2.63,0 -4.762,2.132 -4.762,4.762 0,2.63 2.132,4.762 4.762,4.762 C -2.132,4.762 0,2.63 0,0 Z"
         style="fill:none;stroke:#046195;stroke-width:0.57599998;stroke-linecap:round;stroke-linejoin:round;stroke-miterlimit:4;stroke-dasharray:none;stroke-opacity:1"
         id="path33962"
         inkscape:connector-curvature="0" /></g><g
       id="g33964"
       transform="translate(470.96231,103.35778)"><path
         d="m 0,0 c 0,-2.63 -2.132,-4.762 -4.762,-4.762 -2.63,0 -4.762,2.132 -4.762,4.762 0,2.63 2.132,4.762 4.762,4.762 C -2.132,4.762 0,2.63 0,0 Z"
         style="fill:none;stroke:#046195;stroke-width:0.57599998;stroke-linecap:round;stroke-linejoin:round;stroke-miterlimit:4;stroke-dasharray:none;stroke-opacity:1"
         id="path33966"
         inkscape:connector-curvature="0" /></g><g
       id="g33968"
       transform="translate(353.3069,340.6555)"><path
         d="m 0,0 c 0,-2.63 -2.132,-4.762 -4.762,-4.762 -2.63,0 -4.762,2.132 -4.762,4.762 0,2.63 2.132,4.762 4.762,4.762 C -2.132,4.762 0,2.63 0,0 Z"
         style="fill:none;stroke:#046195;stroke-width:0.57599998;stroke-linecap:round;stroke-linejoin:round;stroke-miterlimit:4;stroke-dasharray:none;stroke-opacity:1"
         id="path33970"
         inkscape:connector-curvature="0" /></g><g
       id="g33972"
       transform="translate(295.0333,363.8593)"><path
         d="m 0,0 c 0,-2.63 -2.132,-4.762 -4.762,-4.762 -2.63,0 -4.762,2.132 -4.762,4.762 0,2.63 2.132,4.762 4.762,4.762 C -2.132,4.762 0,2.63 0,0 Z"
         style="fill:none;stroke:#046195;stroke-width:0.57599998;stroke-linecap:round;stroke-linejoin:round;stroke-miterlimit:4;stroke-dasharray:none;stroke-opacity:1"
         id="path33974"
         inkscape:connector-curvature="0" /></g><g
       id="g33976"
       transform="translate(153.6402,365.6451)"><path
         d="m 0,0 c 0,-2.63 -2.132,-4.762 -4.762,-4.762 -2.63,0 -4.762,2.132 -4.762,4.762 0,2.63 2.132,4.762 4.762,4.762 C -2.132,4.762 0,2.63 0,0 Z"
         style="fill:none;stroke:#046195;stroke-width:0.57599998;stroke-linecap:round;stroke-linejoin:round;stroke-miterlimit:4;stroke-dasharray:none;stroke-opacity:1"
         id="path33978"
         inkscape:connector-curvature="0" /></g><g
       id="g33980"
       transform="translate(15.5569,335.0618)"><path
         d="m 0,0 c 0,-2.63 -2.132,-4.762 -4.762,-4.762 -2.63,0 -4.762,2.132 -4.762,4.762 0,2.63 2.132,4.762 4.762,4.762 C -2.132,4.762 0,2.63 0,0 Z"
         style="fill:none;stroke:#046195;stroke-width:0.57599998;stroke-linecap:round;stroke-linejoin:round;stroke-miterlimit:4;stroke-dasharray:none;stroke-opacity:1"
         id="path33982"
         inkscape:connector-curvature="0" /></g><g
       id="g33984"
       transform="translate(389.0828,154.8958)"><path
         d="m 0,0 c 0,-2.63 -2.132,-4.762 -4.762,-4.762 -2.63,0 -4.762,2.132 -4.762,4.762 0,2.63 2.132,4.762 4.762,4.762 C -2.132,4.762 0,2.63 0,0 Z"
         style="fill:none;stroke:#046195;stroke-width:0.57599998;stroke-linecap:round;stroke-linejoin:round;stroke-miterlimit:4;stroke-dasharray:none;stroke-opacity:1"
         id="path33986"
         inkscape:connector-curvature="0" /></g><g
       id="g33988"
       transform="translate(354.5569,204.6451)"><path
         d="m 0,0 c 0,-2.63 -2.132,-4.762 -4.762,-4.762 -2.63,0 -4.762,2.132 -4.762,4.762 0,2.63 2.132,4.762 4.762,4.762 C -2.132,4.762 0,2.63 0,0 Z"
         style="fill:none;stroke:#046195;stroke-width:0.57599998;stroke-linecap:round;stroke-linejoin:round;stroke-miterlimit:4;stroke-dasharray:none;stroke-opacity:1"
         id="path33990"
         inkscape:connector-curvature="0" /></g></g></svg>