<?xml version="1.0" encoding="UTF-8" standalone="no"?>
<!-- Created with Inkscape (http://www.inkscape.org/) -->

<svg
   xmlns:dc="http://purl.org/dc/elements/1.1/"
   xmlns:cc="http://creativecommons.org/ns#"
   xmlns:rdf="http://www.w3.org/1999/02/22-rdf-syntax-ns#"
   xmlns:svg="http://www.w3.org/2000/svg"
   xmlns="http://www.w3.org/2000/svg"
   xmlns:sodipodi="http://sodipodi.sourceforge.net/DTD/sodipodi-0.dtd"
   xmlns:inkscape="http://www.inkscape.org/namespaces/inkscape"
   version="1.1"
   id="svg29"
   xml:space="preserve"
   width="6.6398916in"
   height="5.612421in"
   viewBox="0 0 637.4296 538.79244"
   sodipodi:docname="iris2-switch-plate.svg"
   inkscape:version="0.92.2 5c3e80d, 2017-08-06"><metadata
     id="metadata35"><rdf:RDF><cc:Work
         rdf:about=""><dc:format>image/svg+xml</dc:format><dc:type
           rdf:resource="http://purl.org/dc/dcmitype/StillImage" /><dc:title /></cc:Work></rdf:RDF></metadata><defs
     id="defs33" /><sodipodi:namedview
     pagecolor="#ffffff"
     bordercolor="#666666"
     borderopacity="1"
     objecttolerance="10"
     gridtolerance="10"
     guidetolerance="10"
     inkscape:pageopacity="0"
     inkscape:pageshadow="2"
     inkscape:window-width="1680"
     inkscape:window-height="981"
     id="namedview31"
     showgrid="false"
     inkscape:zoom="1"
     inkscape:cx="509.50416"
     inkscape:cy="179.48335"
     inkscape:window-x="107"
     inkscape:window-y="1140"
     inkscape:window-maximized="0"
     inkscape:current-layer="g37"
     units="in"
     inkscape:measure-start="487.55,443.356"
     inkscape:measure-end="480.367,442.866"
     inkscape:snap-to-guides="true"
     fit-margin-top="0"
     fit-margin-left="0"
     fit-margin-right="0"
     fit-margin-bottom="0" /><g
     id="g37"
     inkscape:groupmode="layer"
     inkscape:label="iris-switch-plate"
     transform="matrix(1.3333333,0,0,-1.3333333,-10.0056,676.06598)"><g
       id="g47"
       transform="translate(21.8381,235.0038)"><path
         d="m 0,0 c 0,-1.644 -1.333,-2.976 -2.976,-2.976 -1.644,0 -2.977,1.332 -2.977,2.976 0,1.644 1.333,2.976 2.977,2.976 C -1.333,2.976 0,1.644 0,0 Z"
         style="fill:none;stroke:#c62027;stroke-width:0.56699997;stroke-linecap:round;stroke-linejoin:round;stroke-miterlimit:4;stroke-dasharray:none;stroke-opacity:1"
         id="path49"
         inkscape:connector-curvature="0" /></g><g
       id="g51"
       transform="translate(208.2756,181.524)"><path
         d="m 0,0 c 0,-1.644 -1.333,-2.976 -2.976,-2.976 -1.644,0 -2.977,1.332 -2.977,2.976 0,1.644 1.333,2.976 2.977,2.976 C -1.333,2.976 0,1.644 0,0 Z"
         style="fill:none;stroke:#c62027;stroke-width:0.56699997;stroke-linecap:round;stroke-linejoin:round;stroke-miterlimit:4;stroke-dasharray:none;stroke-opacity:1"
         id="path53"
         inkscape:connector-curvature="0" /></g><g
       id="g55"
       transform="translate(409.94958,114.94459)"><path
         d="m 0,0 c 0,-1.644 -1.333,-2.976 -2.976,-2.976 -1.644,0 -2.977,1.332 -2.977,2.976 0,1.644 1.333,2.976 2.977,2.976 C -1.333,2.976 0,1.644 0,0 Z"
         style="fill:none;stroke:#c62027;stroke-width:0.56699997;stroke-linecap:round;stroke-linejoin:round;stroke-miterlimit:4;stroke-dasharray:none;stroke-opacity:1"
         id="path57"
         inkscape:connector-curvature="0" /></g><g
       id="g59"
       transform="translate(476.67998,230.86176)"><path
         d="m 0,0 c 0,-1.644 -1.333,-2.976 -2.976,-2.976 -1.644,0 -2.977,1.332 -2.977,2.976 0,1.644 1.333,2.976 2.977,2.976 C -1.333,2.976 0,1.644 0,0 Z"
         style="fill:none;stroke:#c62027;stroke-width:0.56699997;stroke-linecap:round;stroke-linejoin:round;stroke-miterlimit:4;stroke-dasharray:none;stroke-opacity:1"
         id="path61"
         inkscape:connector-curvature="0" /></g><g
       id="g63"
       transform="translate(359.0256,468.1601)"><path
         d="m 0,0 c 0,-1.644 -1.333,-2.976 -2.976,-2.976 -1.644,0 -2.977,1.332 -2.977,2.976 0,1.644 1.333,2.976 2.977,2.976 C -1.333,2.976 0,1.644 0,0 Z"
         style="fill:none;stroke:#c62027;stroke-width:0.56699997;stroke-linecap:round;stroke-linejoin:round;stroke-miterlimit:4;stroke-dasharray:none;stroke-opacity:1"
         id="path65"
         inkscape:connector-curvature="0" /></g><g
       id="g67"
       transform="translate(300.752,491.3638)"><path
         d="m 0,0 c 0,-1.644 -1.333,-2.976 -2.976,-2.976 -1.644,0 -2.977,1.332 -2.977,2.976 0,1.644 1.333,2.976 2.977,2.976 C -1.333,2.976 0,1.644 0,0 Z"
         style="fill:none;stroke:#c62027;stroke-width:0.56699997;stroke-linecap:round;stroke-linejoin:round;stroke-miterlimit:4;stroke-dasharray:none;stroke-opacity:1"
         id="path69"
         inkscape:connector-curvature="0" /></g><g
       id="g71"
       transform="translate(159.3589,493.1497)"><path
         d="m 0,0 c 0,-1.644 -1.333,-2.976 -2.976,-2.976 -1.644,0 -2.977,1.332 -2.977,2.976 0,1.644 1.333,2.976 2.977,2.976 C -1.333,2.976 0,1.644 0,0 Z"
         style="fill:none;stroke:#c62027;stroke-width:0.56699997;stroke-linecap:round;stroke-linejoin:round;stroke-miterlimit:4;stroke-dasharray:none;stroke-opacity:1"
         id="path73"
         inkscape:connector-curvature="0" /></g><g
       id="g75"
       transform="translate(21.2756,462.5663)"><path
         d="m 0,0 c 0,-1.644 -1.333,-2.976 -2.976,-2.976 -1.644,0 -2.977,1.332 -2.977,2.976 0,1.644 1.333,2.976 2.977,2.976 C -1.333,2.976 0,1.644 0,0 Z"
         style="fill:none;stroke:#c62027;stroke-width:0.56699997;stroke-linecap:round;stroke-linejoin:round;stroke-miterlimit:4;stroke-dasharray:none;stroke-opacity:1"
         id="path77"
         inkscape:connector-curvature="0" /></g><g
       id="g79"
       transform="translate(81.7756,403.0463)"><path
         d="m 0,0 c 0,-1.644 -1.333,-2.976 -2.976,-2.976 -1.644,0 -2.977,1.332 -2.977,2.976 0,1.644 1.333,2.976 2.977,2.976 C -1.333,2.976 0,1.644 0,0 Z"
         style="fill:none;stroke:#c62027;stroke-width:0.56699997;stroke-linecap:round;stroke-linejoin:round;stroke-miterlimit:4;stroke-dasharray:none;stroke-opacity:1"
         id="path81"
         inkscape:connector-curvature="0" /></g><g
       id="g83"
       transform="translate(81.7756,295.0463)"><path
         d="m 0,0 c 0,-1.644 -1.333,-2.976 -2.976,-2.976 -1.644,0 -2.977,1.332 -2.977,2.976 0,1.644 1.333,2.976 2.977,2.976 C -1.333,2.976 0,1.644 0,0 Z"
         style="fill:none;stroke:#c62027;stroke-width:0.56699997;stroke-linecap:round;stroke-linejoin:round;stroke-miterlimit:4;stroke-dasharray:none;stroke-opacity:1"
         id="path85"
         inkscape:connector-curvature="0" /></g><g
       id="g87"
       transform="translate(297.7756,305.1709)"><path
         d="m 0,0 c 0,-1.644 -1.333,-2.976 -2.976,-2.976 -1.644,0 -2.977,1.332 -2.977,2.976 0,1.644 1.333,2.976 2.977,2.976 C -1.333,2.976 0,1.644 0,0 Z"
         style="fill:none;stroke:#c62027;stroke-width:0.56699997;stroke-linecap:round;stroke-linejoin:round;stroke-miterlimit:4;stroke-dasharray:none;stroke-opacity:1"
         id="path89"
         inkscape:connector-curvature="0" /></g><g
       id="g91"
       transform="translate(297.7756,413.171)"><path
         d="m 0,0 c 0,-1.644 -1.333,-2.976 -2.976,-2.976 -1.644,0 -2.977,1.332 -2.977,2.976 0,1.644 1.333,2.976 2.977,2.976 C -1.333,2.976 0,1.644 0,0 Z"
         style="fill:none;stroke:#c62027;stroke-width:0.56699997;stroke-linecap:round;stroke-linejoin:round;stroke-miterlimit:4;stroke-dasharray:none;stroke-opacity:1"
         id="path93"
         inkscape:connector-curvature="0" /></g><g
       id="g95"
       transform="translate(394.8015,282.4004)"><path
         d="m -5.2500001,-3.0000001 c 0,-1.644 -1.333,-2.976 -2.976,-2.976 -1.644,0 -2.9769999,1.332 -2.9769999,2.976 0,1.644 1.3329999,2.97600003 2.9769999,2.97600003 1.643,0 2.976,-1.33200003 2.976,-2.97600003 z"
         style="fill:none;stroke:#c62027;stroke-width:0.56699997;stroke-linecap:round;stroke-linejoin:round;stroke-miterlimit:4;stroke-dasharray:none;stroke-opacity:1"
         id="path97"
         inkscape:connector-curvature="0" /></g><g
       id="g99"
       transform="translate(360.2756,332.1497)"><path
         d="m 0,0 c 0,-1.644 -1.333,-2.976 -2.976,-2.976 -1.644,0 -2.977,1.332 -2.977,2.976 0,1.644 1.333,2.976 2.977,2.976 C -1.333,2.976 0,1.644 0,0 Z"
         style="fill:none;stroke:#c62027;stroke-width:0.56699997;stroke-linecap:round;stroke-linejoin:round;stroke-miterlimit:4;stroke-dasharray:none;stroke-opacity:1"
         id="path101"
         inkscape:connector-curvature="0" /></g><g
       id="g103"
       transform="translate(344.9384,229.3022)"><path
         d="m 0,0 c 0,-1.644 -1.333,-2.976 -2.976,-2.976 -1.644,0 -2.977,1.332 -2.977,2.976 0,1.644 1.333,2.976 2.977,2.976 C -1.333,2.976 0,1.644 0,0 Z"
         style="fill:none;stroke:#c62027;stroke-width:0.56699997;stroke-linecap:round;stroke-linejoin:round;stroke-miterlimit:4;stroke-dasharray:none;stroke-opacity:1"
         id="path105"
         inkscape:connector-curvature="0" /></g><g
       id="g107"
       transform="translate(275.1964,233.6949)"><path
         d="M 0,0 V -1.701 H -2.268 V -37.559 H 0 v -1.701 h 39.26 v 1.701 h 2.268 V -1.701 H 39.26 V 0 Z"
         style="fill:none;stroke:#3a53a4;stroke-width:0.56699997;stroke-linecap:butt;stroke-linejoin:miter;stroke-miterlimit:4;stroke-dasharray:none;stroke-opacity:1"
         id="path109"
         inkscape:connector-curvature="0" /></g><g
       id="g111"
       transform="translate(221.1964,240.4442)"><path
         d="M 0,0 V -1.701 H -2.268 V -37.559 H 0 v -1.701 h 39.26 v 1.701 h 2.268 V -1.701 H 39.26 V 0 Z"
         style="fill:none;stroke:#3a53a4;stroke-width:0.56699997;stroke-linecap:butt;stroke-linejoin:miter;stroke-miterlimit:4;stroke-dasharray:none;stroke-opacity:1"
         id="path113"
         inkscape:connector-curvature="0" /></g><g
       id="g115"
       transform="translate(32.1965,287.6949)"><path
         d="M 0,0 V -1.701 H -2.268 V -37.559 H 0 v -1.701 h 39.26 v 1.701 h 2.268 V -1.701 H 39.26 V 0 Z"
         style="fill:none;stroke:#3a53a4;stroke-width:0.56699997;stroke-linecap:butt;stroke-linejoin:miter;stroke-miterlimit:4;stroke-dasharray:none;stroke-opacity:1"
         id="path117"
         inkscape:connector-curvature="0" /></g><g
       id="g119"
       transform="translate(86.1965,287.6949)"><path
         d="M 0,0 V -1.701 H -2.268 V -37.559 H 0 v -1.701 h 39.26 v 1.701 h 2.268 V -1.701 H 39.26 V 0 Z"
         style="fill:none;stroke:#3a53a4;stroke-width:0.56699997;stroke-linecap:butt;stroke-linejoin:miter;stroke-miterlimit:4;stroke-dasharray:none;stroke-opacity:1"
         id="path121"
         inkscape:connector-curvature="0" /></g><g
       id="g123"
       transform="translate(302.1964,294.4442)"><path
         d="M 0,0 V -1.701 H -2.268 V -37.559 H 0 v -1.701 h 39.26 v 1.701 h 2.268 V -1.701 H 39.26 V 0 Z"
         style="fill:none;stroke:#3a53a4;stroke-width:0.56699997;stroke-linecap:butt;stroke-linejoin:miter;stroke-miterlimit:4;stroke-dasharray:none;stroke-opacity:1"
         id="path125"
         inkscape:connector-curvature="0" /></g><g
       id="g127"
       transform="translate(140.1965,301.1935)"><path
         d="M 0,0 V -1.701 H -2.268 V -37.559 H 0 v -1.701 h 39.26 v 1.701 h 2.268 V -1.701 H 39.26 V 0 Z"
         style="fill:none;stroke:#3a53a4;stroke-width:0.56699997;stroke-linecap:butt;stroke-linejoin:miter;stroke-miterlimit:4;stroke-dasharray:none;stroke-opacity:1"
         id="path129"
         inkscape:connector-curvature="0" /></g><g
       id="g131"
       transform="translate(248.1964,301.1935)"><path
         d="M 0,0 V -1.701 H -2.268 V -37.559 H 0 v -1.701 h 39.26 v 1.701 h 2.268 V -1.701 H 39.26 V 0 Z"
         style="fill:none;stroke:#3a53a4;stroke-width:0.56699997;stroke-linecap:butt;stroke-linejoin:miter;stroke-miterlimit:4;stroke-dasharray:none;stroke-opacity:1"
         id="path133"
         inkscape:connector-curvature="0" /></g><g
       id="g135"
       transform="translate(194.1964,307.9428)"><path
         d="M 0,0 V -1.701 H -2.268 V -37.559 H 0 v -1.701 h 39.26 v 1.701 h 2.268 V -1.701 H 39.26 V 0 Z"
         style="fill:none;stroke:#3a53a4;stroke-width:0.56699997;stroke-linecap:butt;stroke-linejoin:miter;stroke-miterlimit:4;stroke-dasharray:none;stroke-opacity:1"
         id="path137"
         inkscape:connector-curvature="0" /></g><g
       id="g139"
       transform="translate(32.1965,341.6949)"><path
         d="M 0,0 V -1.701 H -2.268 V -37.559 H 0 v -1.701 h 39.26 v 1.701 h 2.268 V -1.701 H 39.26 V 0 Z"
         style="fill:none;stroke:#3a53a4;stroke-width:0.56699997;stroke-linecap:butt;stroke-linejoin:miter;stroke-miterlimit:4;stroke-dasharray:none;stroke-opacity:1"
         id="path141"
         inkscape:connector-curvature="0" /></g><g
       id="g143"
       transform="translate(86.1965,341.6949)"><path
         d="M 0,0 V -1.701 H -2.268 V -37.559 H 0 v -1.701 h 39.26 v 1.701 h 2.268 V -1.701 H 39.26 V 0 Z"
         style="fill:none;stroke:#3a53a4;stroke-width:0.56699997;stroke-linecap:butt;stroke-linejoin:miter;stroke-miterlimit:4;stroke-dasharray:none;stroke-opacity:1"
         id="path145"
         inkscape:connector-curvature="0" /></g><g
       id="g147"
       transform="translate(302.1964,348.4442)"><path
         d="M 0,0 V -1.701 H -2.268 V -37.559 H 0 v -1.701 h 39.26 v 1.701 h 2.268 V -1.701 H 39.26 V 0 Z"
         style="fill:none;stroke:#3a53a4;stroke-width:0.56699997;stroke-linecap:butt;stroke-linejoin:miter;stroke-miterlimit:4;stroke-dasharray:none;stroke-opacity:1"
         id="path149"
         inkscape:connector-curvature="0" /></g><g
       id="g151"
       transform="translate(140.1965,355.1935)"><path
         d="M 0,0 V -1.701 H -2.268 V -37.559 H 0 v -1.701 h 39.26 v 1.701 h 2.268 V -1.701 H 39.26 V 0 Z"
         style="fill:none;stroke:#3a53a4;stroke-width:0.56699997;stroke-linecap:butt;stroke-linejoin:miter;stroke-miterlimit:4;stroke-dasharray:none;stroke-opacity:1"
         id="path153"
         inkscape:connector-curvature="0" /></g><g
       id="g155"
       transform="translate(248.1964,355.1935)"><path
         d="M 0,0 V -1.701 H -2.268 V -37.559 H 0 v -1.701 h 39.26 v 1.701 h 2.268 V -1.701 H 39.26 V 0 Z"
         style="fill:none;stroke:#3a53a4;stroke-width:0.56699997;stroke-linecap:butt;stroke-linejoin:miter;stroke-miterlimit:4;stroke-dasharray:none;stroke-opacity:1"
         id="path157"
         inkscape:connector-curvature="0" /></g><g
       id="g159"
       transform="translate(194.1964,361.9428)"><path
         d="M 0,0 V -1.701 H -2.268 V -37.559 H 0 v -1.701 h 39.26 v 1.701 h 2.268 V -1.701 H 39.26 V 0 Z"
         style="fill:none;stroke:#3a53a4;stroke-width:0.56699997;stroke-linecap:butt;stroke-linejoin:miter;stroke-miterlimit:4;stroke-dasharray:none;stroke-opacity:1"
         id="path161"
         inkscape:connector-curvature="0" /></g><g
       id="g163"
       transform="translate(32.1965,395.6949)"><path
         d="M 0,0 V -1.701 H -2.268 V -37.559 H 0 v -1.701 h 39.26 v 1.701 h 2.268 V -1.701 H 39.26 V 0 Z"
         style="fill:none;stroke:#3a53a4;stroke-width:0.56699997;stroke-linecap:butt;stroke-linejoin:miter;stroke-miterlimit:4;stroke-dasharray:none;stroke-opacity:1"
         id="path165"
         inkscape:connector-curvature="0" /></g><g
       id="g167"
       transform="translate(86.1965,395.6949)"><path
         d="M 0,0 V -1.701 H -2.268 V -37.559 H 0 v -1.701 h 39.26 v 1.701 h 2.268 V -1.701 H 39.26 V 0 Z"
         style="fill:none;stroke:#3a53a4;stroke-width:0.56699997;stroke-linecap:butt;stroke-linejoin:miter;stroke-miterlimit:4;stroke-dasharray:none;stroke-opacity:1"
         id="path169"
         inkscape:connector-curvature="0" /></g><g
       id="g171"
       transform="translate(302.1964,402.4442)"><path
         d="M 0,0 V -1.701 H -2.268 V -37.559 H 0 v -1.701 h 39.26 v 1.701 h 2.268 V -1.701 H 39.26 V 0 Z"
         style="fill:none;stroke:#3a53a4;stroke-width:0.56699997;stroke-linecap:butt;stroke-linejoin:miter;stroke-miterlimit:4;stroke-dasharray:none;stroke-opacity:1"
         id="path173"
         inkscape:connector-curvature="0" /></g><g
       id="g175"
       transform="translate(140.1965,409.1935)"><path
         d="M 0,0 V -1.701 H -2.268 V -37.559 H 0 v -1.701 h 39.26 v 1.701 h 2.268 V -1.701 H 39.26 V 0 Z"
         style="fill:none;stroke:#3a53a4;stroke-width:0.56699997;stroke-linecap:butt;stroke-linejoin:miter;stroke-miterlimit:4;stroke-dasharray:none;stroke-opacity:1"
         id="path177"
         inkscape:connector-curvature="0" /></g><g
       id="g179"
       transform="translate(248.1964,409.1935)"><path
         d="M 0,0 V -1.701 H -2.268 V -37.559 H 0 v -1.701 h 39.26 v 1.701 h 2.268 V -1.701 H 39.26 V 0 Z"
         style="fill:none;stroke:#3a53a4;stroke-width:0.56699997;stroke-linecap:butt;stroke-linejoin:miter;stroke-miterlimit:4;stroke-dasharray:none;stroke-opacity:1"
         id="path181"
         inkscape:connector-curvature="0" /></g><g
       id="g183"
       transform="translate(194.1964,415.9428)"><path
         d="M 0,0 V -1.701 H -2.268 V -37.559 H 0 v -1.701 h 39.26 v 1.701 h 2.268 V -1.701 H 39.26 V 0 Z"
         style="fill:none;stroke:#3a53a4;stroke-width:0.56699997;stroke-linecap:butt;stroke-linejoin:miter;stroke-miterlimit:4;stroke-dasharray:none;stroke-opacity:1"
         id="path185"
         inkscape:connector-curvature="0" /></g><g
       id="g187"
       transform="translate(32.1965,449.6949)"><path
         d="M 0,0 V -1.701 H -2.268 V -37.559 H 0 v -1.701 h 39.26 v 1.701 h 2.268 V -1.701 H 39.26 V 0 Z"
         style="fill:none;stroke:#3a53a4;stroke-width:0.56699997;stroke-linecap:butt;stroke-linejoin:miter;stroke-miterlimit:4;stroke-dasharray:none;stroke-opacity:1"
         id="path189"
         inkscape:connector-curvature="0" /></g><g
       id="g191"
       transform="translate(86.1965,449.6949)"><path
         d="M 0,0 V -1.701 H -2.268 V -37.559 H 0 v -1.701 h 39.26 v 1.701 h 2.268 V -1.701 H 39.26 V 0 Z"
         style="fill:none;stroke:#3a53a4;stroke-width:0.56699997;stroke-linecap:butt;stroke-linejoin:miter;stroke-miterlimit:4;stroke-dasharray:none;stroke-opacity:1"
         id="path193"
         inkscape:connector-curvature="0" /></g><g
       id="g195"
       transform="translate(302.1964,456.4442)"><path
         d="M 0,0 V -1.701 H -2.268 V -37.559 H 0 v -1.701 h 39.26 v 1.701 h 2.268 V -1.701 H 39.26 V 0 Z"
         style="fill:none;stroke:#3a53a4;stroke-width:0.56699997;stroke-linecap:butt;stroke-linejoin:miter;stroke-miterlimit:4;stroke-dasharray:none;stroke-opacity:1"
         id="path197"
         inkscape:connector-curvature="0" /></g><g
       id="g199"
       transform="translate(140.1965,463.1935)"><path
         d="M 0,0 V -1.701 H -2.268 V -37.559 H 0 v -1.701 h 39.26 v 1.701 h 2.268 V -1.701 H 39.26 V 0 Z"
         style="fill:none;stroke:#3a53a4;stroke-width:0.56699997;stroke-linecap:butt;stroke-linejoin:miter;stroke-miterlimit:4;stroke-dasharray:none;stroke-opacity:1"
         id="path201"
         inkscape:connector-curvature="0" /></g><g
       id="g203"
       transform="translate(248.1964,463.1935)"><path
         d="M 0,0 V -1.701 H -2.268 V -37.559 H 0 v -1.701 h 39.26 v 1.701 h 2.268 V -1.701 H 39.26 V 0 Z"
         style="fill:none;stroke:#3a53a4;stroke-width:0.56699997;stroke-linecap:butt;stroke-linejoin:miter;stroke-miterlimit:4;stroke-dasharray:none;stroke-opacity:1"
         id="path205"
         inkscape:connector-curvature="0" /></g><g
       id="g207"
       transform="translate(194.1964,469.9428)"><path
         d="M 0,0 V -1.701 H -2.268 V -37.559 H 0 v -1.701 h 39.26 v 1.701 h 2.268 V -1.701 H 39.26 V 0 Z"
         style="fill:none;stroke:#3a53a4;stroke-width:0.56699997;stroke-linecap:butt;stroke-linejoin:miter;stroke-miterlimit:4;stroke-dasharray:none;stroke-opacity:1"
         id="path209"
         inkscape:connector-curvature="0" /></g><g
       id="g211"
       transform="translate(409.347,244.5818)"><path
         d="m 0,0 -1.472,0.85 1.15,1.992 -31.091,17.95 -1.15,-1.992 -1.472,0.85 -4.2,-7.275 -1.818,1.05 -4.45,-7.707 1.818,-1.05 -29.3,-50.749 -1.818,1.05 -4.45,-7.708 1.818,-1.05 -4.2,-7.275 1.472,-0.85 -1.15,-1.991 31.091,-17.95 1.15,1.991 1.472,-0.85 z"
         style="fill:none;stroke:#3a53a4;stroke-width:0.56699997;stroke-linecap:butt;stroke-linejoin:miter;stroke-miterlimit:4;stroke-dasharray:none;stroke-opacity:1"
         id="path213"
         inkscape:connector-curvature="0" /></g><g
       id="g215"
       transform="translate(364.9027,127.788)"><path
         d="m 42.519339,-24.549323 c -1.479,0 -2.895644,0.577711 -4.251,1.139 C 35.64875,-22.32548 -16.461373,10.839175 -16.461373,10.839175 -60.748373,36.395175 -58.622999,37.264 -93.889999,41.196 -103.085,42.222 -146.314,41.029 -155.657,42.445 l -7.231,1.098 c -4.156,0.631 -7.227,4.204 -7.227,8.407 v 35.804 c 0,4.694 -3.805,8.5 -8.5,8.5 h -169.996 c -4.696,0 -8.504,3.807 -8.504,8.504 V 335.78 c 0,3.845 2.581,7.212 6.294,8.212 l 6.294,1.694 c 83.241,22.402 150.993,33.292 207.129,33.292 52.284,0 94.61,-9.163 129.394,-28.013 l 4.452,-2.413 C -0.808,347.066 0.9,344.196 0.9,341.076 V 191.262 c 0,-19.587 19.819776,-24.58282 65.014628,-50.67682 l 50.223712,-28.9975 c 4.06618,-2.34768 5.46022,-7.54613 3.114,-11.614 L 49.885339,-20.294322 c -1.127007,-1.953996 -2.98393,-3.380262 -5.163,-3.965001 -0.72393,-0.194261 -1.465,-0.29 -2.203,-0.29 z"
         style="fill:none;stroke:#d72227;stroke-width:0.56699997;stroke-linecap:round;stroke-linejoin:round;stroke-miterlimit:4;stroke-dasharray:none;stroke-opacity:1"
         id="path217"
         inkscape:connector-curvature="0"
         sodipodi:nodetypes="ssccccssssssccsccssssssss" /></g><g
       transform="translate(452.22043,219.82944)"
       id="g4108"><path
         inkscape:connector-curvature="0"
         id="path4106"
         style="fill:none;stroke:#3a53a4;stroke-width:0.56699997;stroke-linecap:butt;stroke-linejoin:miter;stroke-miterlimit:4;stroke-dasharray:none;stroke-opacity:1"
         d="m 0,0 -1.472,0.85 1.15,1.992 -31.091,17.95 -1.15,-1.992 -1.472,0.85 -4.2,-7.275 -1.818,1.05 -4.45,-7.707 1.818,-1.05 -29.3,-50.749 -1.818,1.05 -4.45,-7.708 1.818,-1.05 -4.2,-7.275 1.472,-0.85 -1.15,-1.991 31.091,-17.95 1.15,1.991 1.472,-0.85 z" /></g><text
       xml:space="preserve"
       style="font-style:normal;font-weight:normal;font-size:30px;line-height:1.25;font-family:sans-serif;letter-spacing:0px;word-spacing:0px;fill:#000000;fill-opacity:1;stroke:none;stroke-width:0.75"
       x="138.15099"
       y="-234.14078"
       id="text4375"
       transform="scale(1,-1)"><tspan
         sodipodi:role="line"
         id="tspan4373"
         x="138.15099"
         y="-234.14078"
         style="stroke-width:0.75">8.73</tspan></text>
<text
       xml:space="preserve"
       style="font-style:normal;font-weight:normal;font-size:30px;line-height:1.25;font-family:sans-serif;letter-spacing:0px;word-spacing:0px;fill:#000000;fill-opacity:1;stroke:none;stroke-width:0.75"
       x="35.266956"
       y="-456.34909"
       id="text4379"
       transform="scale(1,-1)"><tspan
         sodipodi:role="line"
         id="tspan4377"
         x="35.266956"
         y="-456.34909"
         style="stroke-width:0.75">15.121</tspan></text>
<g
       transform="translate(325.8015,172.1504)"
       id="g101"><path
         inkscape:connector-curvature="0"
         id="path99"
         style="fill:none;stroke:#c62027;stroke-width:0.56699997;stroke-linecap:round;stroke-linejoin:round;stroke-miterlimit:4;stroke-dasharray:none;stroke-opacity:1"
         d="m -5.2500001,-3.0000001 c 0,-1.644 -1.333,-2.976 -2.976,-2.976 -1.644,0 -2.9769999,1.332 -2.9769999,2.976 0,1.644 1.3329999,2.97600003 2.9769999,2.97600003 1.643,0 2.976,-1.33200003 2.976,-2.97600003 z" /></g></g></svg>