<?xml version="1.0" encoding="UTF-8" standalone="no"?>
<!-- Created with Inkscape (http://www.inkscape.org/) -->

<svg
   xmlns:dc="http://purl.org/dc/elements/1.1/"
   xmlns:cc="http://creativecommons.org/ns#"
   xmlns:rdf="http://www.w3.org/1999/02/22-rdf-syntax-ns#"
   xmlns:svg="http://www.w3.org/2000/svg"
   xmlns="http://www.w3.org/2000/svg"
   xmlns:sodipodi="http://sodipodi.sourceforge.net/DTD/sodipodi-0.dtd"
   xmlns:inkscape="http://www.inkscape.org/namespaces/inkscape"
   version="1.1"
   id="svg34199"
   xml:space="preserve"
   width="637.89807"
   height="539.08112"
   viewBox="0 0 637.89807 539.08111"
   sodipodi:docname="iris2-top-layer.svg"
   inkscape:version="0.92.2 5c3e80d, 2017-08-06"><metadata
     id="metadata34205"><rdf:RDF><cc:Work
         rdf:about=""><dc:format>image/svg+xml</dc:format><dc:type
           rdf:resource="http://purl.org/dc/dcmitype/StillImage" /><dc:title></dc:title></cc:Work></rdf:RDF></metadata><defs
     id="defs34203" /><sodipodi:namedview
     pagecolor="#ffffff"
     bordercolor="#666666"
     borderopacity="1"
     objecttolerance="10"
     gridtolerance="10"
     guidetolerance="10"
     inkscape:pageopacity="0"
     inkscape:pageshadow="2"
     inkscape:window-width="1138"
     inkscape:window-height="931"
     id="namedview34201"
     showgrid="false"
     inkscape:zoom="0.93267363"
     inkscape:cx="397.59438"
     inkscape:cy="280.68417"
     inkscape:window-x="0"
     inkscape:window-y="0"
     inkscape:window-maximized="0"
     inkscape:current-layer="g34207"
     fit-margin-top="0"
     fit-margin-left="0"
     fit-margin-right="0"
     fit-margin-bottom="0" /><g
     id="g34207"
     inkscape:groupmode="layer"
     inkscape:label="iris-top-layer"
     transform="matrix(1.3333333,0,0,-1.3333333,3.9998346e-4,506.07199)"><g
       id="g34217"
       transform="translate(11.7683,105.0458)"><path
         d="m 0,0 c 0,-1.644 -1.333,-2.976 -2.976,-2.976 -1.644,0 -2.977,1.332 -2.977,2.976 0,1.644 1.333,2.976 2.977,2.976 C -1.333,2.976 0,1.644 0,0 Z"
         style="fill:none;stroke:#c62027;stroke-width:0.57599998;stroke-linecap:round;stroke-linejoin:round;stroke-miterlimit:4;stroke-dasharray:none;stroke-opacity:1"
         id="path34219"
         inkscape:connector-curvature="0" /></g><g
       id="g34221"
       transform="translate(198.7683,52.2382)"><path
         d="m 0,0 c 0,-1.644 -1.333,-2.976 -2.976,-2.976 -1.644,0 -2.977,1.332 -2.977,2.976 0,1.644 1.333,2.976 2.977,2.976 C -1.333,2.976 0,1.644 0,0 Z"
         style="fill:none;stroke:#c62027;stroke-width:0.57599998;stroke-linecap:round;stroke-linejoin:round;stroke-miterlimit:4;stroke-dasharray:none;stroke-opacity:1"
         id="path34223"
         inkscape:connector-curvature="0" /></g><g
       id="g34225"
       transform="translate(403.24164,-15.954891)"><path
         d="m 0,0 c 0,-1.644 -1.333,-2.976 -2.976,-2.976 -1.644,0 -2.977,1.332 -2.977,2.976 0,1.644 1.333,2.976 2.977,2.976 C -1.333,2.976 0,1.644 0,0 Z"
         style="fill:none;stroke:#c62027;stroke-width:0.57599998;stroke-linecap:round;stroke-linejoin:round;stroke-miterlimit:4;stroke-dasharray:none;stroke-opacity:1"
         id="path34227"
         inkscape:connector-curvature="0" /></g><g
       id="g34229"
       transform="translate(472.60884,104.31321)"><path
         d="m 0,0 c 0,-1.644 -1.333,-2.976 -2.976,-2.976 -1.644,0 -2.977,1.332 -2.977,2.976 0,1.644 1.333,2.976 2.977,2.976 C -1.333,2.976 0,1.644 0,0 Z"
         style="fill:none;stroke:#c62027;stroke-width:0.57599998;stroke-linecap:round;stroke-linejoin:round;stroke-miterlimit:4;stroke-dasharray:none;stroke-opacity:1"
         id="path34231"
         inkscape:connector-curvature="0" /></g><g
       id="g34233"
       transform="translate(352.7756,341.3637)"><path
         d="m 0,0 c 0,-1.644 -1.333,-2.976 -2.976,-2.976 -1.644,0 -2.977,1.332 -2.977,2.976 0,1.644 1.333,2.976 2.977,2.976 C -1.333,2.976 0,1.644 0,0 Z"
         style="fill:none;stroke:#c62027;stroke-width:0.57599998;stroke-linecap:round;stroke-linejoin:round;stroke-miterlimit:4;stroke-dasharray:none;stroke-opacity:1"
         id="path34235"
         inkscape:connector-curvature="0" /></g><g
       id="g34237"
       transform="translate(290.272,364.3997)"><path
         d="m 0,0 c 0,-1.644 -1.333,-2.976 -2.976,-2.976 -1.644,0 -2.977,1.332 -2.977,2.976 0,1.644 1.333,2.976 2.977,2.976 C -1.333,2.976 0,1.644 0,0 Z"
         style="fill:none;stroke:#c62027;stroke-width:0.57599998;stroke-linecap:round;stroke-linejoin:round;stroke-miterlimit:4;stroke-dasharray:none;stroke-opacity:1"
         id="path34239"
         inkscape:connector-curvature="0" /></g><g
       id="g34241"
       transform="translate(155.272,366.0663)"><path
         d="m 0,0 c 0,-1.644 -1.333,-2.976 -2.976,-2.976 -1.644,0 -2.977,1.332 -2.977,2.976 0,1.644 1.333,2.976 2.977,2.976 C -1.333,2.976 0,1.644 0,0 Z"
         style="fill:none;stroke:#c62027;stroke-width:0.57599998;stroke-linecap:round;stroke-linejoin:round;stroke-miterlimit:4;stroke-dasharray:none;stroke-opacity:1"
         id="path34243"
         inkscape:connector-curvature="0" /></g><g
       id="g34245"
       transform="translate(11.7683,336.0678)"><path
         d="m 0,0 c 0,-1.644 -1.333,-2.976 -2.976,-2.976 -1.644,0 -2.977,1.332 -2.977,2.976 0,1.644 1.333,2.976 2.977,2.976 C -1.333,2.976 0,1.644 0,0 Z"
         style="fill:none;stroke:#c62027;stroke-width:0.57599998;stroke-linecap:round;stroke-linejoin:round;stroke-miterlimit:4;stroke-dasharray:none;stroke-opacity:1"
         id="path34247"
         inkscape:connector-curvature="0" /></g><g
       id="g34249"
       transform="translate(385.5157,156.066)"><path
         d="m 0,0 c 0,-1.644 -1.333,-2.976 -2.976,-2.976 -1.644,0 -2.977,1.332 -2.977,2.976 0,1.644 1.333,2.976 2.977,2.976 C -1.333,2.976 0,1.644 0,0 Z"
         style="fill:none;stroke:#c62027;stroke-width:0.57599998;stroke-linecap:round;stroke-linejoin:round;stroke-miterlimit:4;stroke-dasharray:none;stroke-opacity:1"
         id="path34251"
         inkscape:connector-curvature="0" /></g><g
       id="g34253"
       transform="translate(352.7756,202.7927)"><path
         d="m 0,0 c 0,-1.644 -1.333,-2.976 -2.976,-2.976 -1.644,0 -2.977,1.332 -2.977,2.976 0,1.644 1.333,2.976 2.977,2.976 C -1.333,2.976 0,1.644 0,0 Z"
         style="fill:none;stroke:#c62027;stroke-width:0.57599998;stroke-linecap:round;stroke-linejoin:round;stroke-miterlimit:4;stroke-dasharray:none;stroke-opacity:1"
         id="path34255"
         inkscape:connector-curvature="0" /></g><g
       id="g34257"
       transform="translate(341.2956,201.2999)"><path
         d="m 0,0 v 131.587 c 0,2.137 -1.21,4.077 -3.109,5.057 -77.13,39.789 -191.747,25.984 -316.672,-7.265 -2.486,-0.661 -4.219,-2.919 -4.219,-5.491 V -82.091 c 0,-3.125 2.534,-5.659 5.659,-5.659 h 175.683 c 3.125,0 5.658,-2.533 5.658,-5.658 v -43.433 c 0,-2.842 2.106,-5.232 4.921,-5.621 41.773,-5.779 128.1688581,-30.18132 183.091858,-60.44632 2.7,-1.487 6.097,-0.551 7.637,2.119 l 55.248002,95.789 c 1.56,2.705 0.633,6.161001 -2.064,7.733001 C 68.074858,-71.759319 0,-28.521 0,0 Z"
         style="fill:none;stroke:#d72227;stroke-width:0.57599998;stroke-linecap:round;stroke-linejoin:round;stroke-miterlimit:4;stroke-dasharray:none;stroke-opacity:1"
         id="path34259"
         inkscape:connector-curvature="0"
         sodipodi:nodetypes="ssccsssssscccccs" /></g><g
       id="g34261"
       transform="translate(357.4027,0.288)"><path
         d="m 42.861858,-24.747319 c -1.463841,0.09595 -2.947,0.386 -4.251,1.139 l -7.367,4.252 C -13.043142,6.1996811 -92.373,35.014 -127.64,38.946 c -9.195,1.026 -18.674,2.083 -28.017,3.499 l -7.231,1.098 c -4.156,0.631 -7.227,4.204 -7.227,8.407 v 35.804 c 0,4.694 -3.805,8.5 -8.5,8.5 h -169.996 c -4.696,0 -8.504,3.807 -8.504,8.504 V 335.78 c 0,3.845 2.581,7.212 6.294,8.212 l 6.294,1.694 c 83.241,22.402 150.993,33.292 207.129,33.292 52.284,0 94.61,-9.163 129.394,-28.013 l 4.452,-2.413 C -0.808,347.066 0.9,344.196 0.9,341.076 V 201.012 c 0,-19.587 63.023858,-59.28032 108.21986,-85.37232 l 7.361,-4.25 c 4.066,-2.348 5.46,-7.546 3.114,-11.613999 l -69.367002,-120.268 c -1.127,-1.954 -2.984,-3.38 -5.163,-3.965 -0.724,-0.194 -1.463917,-0.338443 -2.203,-0.29 z"
         style="fill:none;stroke:#d72227;stroke-width:0.57599998;stroke-linecap:round;stroke-linejoin:round;stroke-miterlimit:4;stroke-dasharray:none;stroke-opacity:1"
         id="path34263"
         inkscape:connector-curvature="0"
         sodipodi:nodetypes="acccccssssssccsccssccccca" /></g></g></svg>