<?xml version="1.0" encoding="UTF-8" standalone="no"?>
<!-- Created with Inkscape (http://www.inkscape.org/) -->

<svg
   xmlns:dc="http://purl.org/dc/elements/1.1/"
   xmlns:cc="http://creativecommons.org/ns#"
   xmlns:rdf="http://www.w3.org/1999/02/22-rdf-syntax-ns#"
   xmlns:svg="http://www.w3.org/2000/svg"
   xmlns="http://www.w3.org/2000/svg"
   xmlns:sodipodi="http://sodipodi.sourceforge.net/DTD/sodipodi-0.dtd"
   xmlns:inkscape="http://www.inkscape.org/namespaces/inkscape"
   version="1.1"
   id="svg29"
   xml:space="preserve"
   width="580.75067"
   height="506.07199"
   viewBox="0 0 580.75067 506.07199"
   sodipodi:docname="iris-switch-plate.svg"
   inkscape:version="0.92.2 5c3e80d, 2017-08-06"><metadata
     id="metadata35"><rdf:RDF><cc:Work
         rdf:about=""><dc:format>image/svg+xml</dc:format><dc:type
           rdf:resource="http://purl.org/dc/dcmitype/StillImage" /><dc:title></dc:title></cc:Work></rdf:RDF></metadata><defs
     id="defs33"><clipPath
       clipPathUnits="userSpaceOnUse"
       id="clipPath45"><path
         d="M 0,379.554 H 435.563 V 0 H 0 Z"
         id="path43"
         inkscape:connector-curvature="0" /></clipPath></defs><sodipodi:namedview
     pagecolor="#ffffff"
     bordercolor="#666666"
     borderopacity="1"
     objecttolerance="10"
     gridtolerance="10"
     guidetolerance="10"
     inkscape:pageopacity="0"
     inkscape:pageshadow="2"
     inkscape:window-width="1030"
     inkscape:window-height="696"
     id="namedview31"
     showgrid="false"
     inkscape:zoom="2"
     inkscape:cx="144.56635"
     inkscape:cy="280.19123"
     inkscape:window-x="501"
     inkscape:window-y="255"
     inkscape:window-maximized="0"
     inkscape:current-layer="g37" /><g
     id="g37"
     inkscape:groupmode="layer"
     inkscape:label="iris-switch-plate"
     transform="matrix(1.3333333,0,0,-1.3333333,0,506.072)"><g
       id="g39"><g
         id="g41"
         clip-path="url(#clipPath45)"><g
           id="g47"
           transform="translate(14.3381,107.5038)"><path
             d="m 0,0 c 0,-1.644 -1.333,-2.976 -2.976,-2.976 -1.644,0 -2.977,1.332 -2.977,2.976 0,1.644 1.333,2.976 2.977,2.976 C -1.333,2.976 0,1.644 0,0 Z"
             style="fill:none;stroke:#c62027;stroke-width:0.56699997;stroke-linecap:round;stroke-linejoin:round;stroke-miterlimit:4;stroke-dasharray:none;stroke-opacity:1"
             id="path49"
             inkscape:connector-curvature="0" /></g><g
           id="g51"
           transform="translate(200.7756,54.024)"><path
             d="m 0,0 c 0,-1.644 -1.333,-2.976 -2.976,-2.976 -1.644,0 -2.977,1.332 -2.977,2.976 0,1.644 1.333,2.976 2.977,2.976 C -1.333,2.976 0,1.644 0,0 Z"
             style="fill:none;stroke:#c62027;stroke-width:0.56699997;stroke-linecap:round;stroke-linejoin:round;stroke-miterlimit:4;stroke-dasharray:none;stroke-opacity:1"
             id="path53"
             inkscape:connector-curvature="0" /></g><g
           id="g55"
           transform="translate(359.5881,12.1913)"><path
             d="m 0,0 c 0,-1.644 -1.333,-2.976 -2.976,-2.976 -1.644,0 -2.977,1.332 -2.977,2.976 0,1.644 1.333,2.976 2.977,2.976 C -1.333,2.976 0,1.644 0,0 Z"
             style="fill:none;stroke:#c62027;stroke-width:0.56699997;stroke-linecap:round;stroke-linejoin:round;stroke-miterlimit:4;stroke-dasharray:none;stroke-opacity:1"
             id="path57"
             inkscape:connector-curvature="0" /></g><g
           id="g59"
           transform="translate(426.3173,128.108)"><path
             d="m 0,0 c 0,-1.644 -1.333,-2.976 -2.976,-2.976 -1.644,0 -2.977,1.332 -2.977,2.976 0,1.644 1.333,2.976 2.977,2.976 C -1.333,2.976 0,1.644 0,0 Z"
             style="fill:none;stroke:#c62027;stroke-width:0.56699997;stroke-linecap:round;stroke-linejoin:round;stroke-miterlimit:4;stroke-dasharray:none;stroke-opacity:1"
             id="path61"
             inkscape:connector-curvature="0" /></g><g
           id="g63"
           transform="translate(351.5256,340.6601)"><path
             d="m 0,0 c 0,-1.644 -1.333,-2.976 -2.976,-2.976 -1.644,0 -2.977,1.332 -2.977,2.976 0,1.644 1.333,2.976 2.977,2.976 C -1.333,2.976 0,1.644 0,0 Z"
             style="fill:none;stroke:#c62027;stroke-width:0.56699997;stroke-linecap:round;stroke-linejoin:round;stroke-miterlimit:4;stroke-dasharray:none;stroke-opacity:1"
             id="path65"
             inkscape:connector-curvature="0" /></g><g
           id="g67"
           transform="translate(293.252,363.8638)"><path
             d="m 0,0 c 0,-1.644 -1.333,-2.976 -2.976,-2.976 -1.644,0 -2.977,1.332 -2.977,2.976 0,1.644 1.333,2.976 2.977,2.976 C -1.333,2.976 0,1.644 0,0 Z"
             style="fill:none;stroke:#c62027;stroke-width:0.56699997;stroke-linecap:round;stroke-linejoin:round;stroke-miterlimit:4;stroke-dasharray:none;stroke-opacity:1"
             id="path69"
             inkscape:connector-curvature="0" /></g><g
           id="g71"
           transform="translate(151.8589,365.6497)"><path
             d="m 0,0 c 0,-1.644 -1.333,-2.976 -2.976,-2.976 -1.644,0 -2.977,1.332 -2.977,2.976 0,1.644 1.333,2.976 2.977,2.976 C -1.333,2.976 0,1.644 0,0 Z"
             style="fill:none;stroke:#c62027;stroke-width:0.56699997;stroke-linecap:round;stroke-linejoin:round;stroke-miterlimit:4;stroke-dasharray:none;stroke-opacity:1"
             id="path73"
             inkscape:connector-curvature="0" /></g><g
           id="g75"
           transform="translate(13.7756,335.0663)"><path
             d="m 0,0 c 0,-1.644 -1.333,-2.976 -2.976,-2.976 -1.644,0 -2.977,1.332 -2.977,2.976 0,1.644 1.333,2.976 2.977,2.976 C -1.333,2.976 0,1.644 0,0 Z"
             style="fill:none;stroke:#c62027;stroke-width:0.56699997;stroke-linecap:round;stroke-linejoin:round;stroke-miterlimit:4;stroke-dasharray:none;stroke-opacity:1"
             id="path77"
             inkscape:connector-curvature="0" /></g><g
           id="g79"
           transform="translate(74.2756,275.5463)"><path
             d="m 0,0 c 0,-1.644 -1.333,-2.976 -2.976,-2.976 -1.644,0 -2.977,1.332 -2.977,2.976 0,1.644 1.333,2.976 2.977,2.976 C -1.333,2.976 0,1.644 0,0 Z"
             style="fill:none;stroke:#c62027;stroke-width:0.56699997;stroke-linecap:round;stroke-linejoin:round;stroke-miterlimit:4;stroke-dasharray:none;stroke-opacity:1"
             id="path81"
             inkscape:connector-curvature="0" /></g><g
           id="g83"
           transform="translate(74.2756,167.5463)"><path
             d="m 0,0 c 0,-1.644 -1.333,-2.976 -2.976,-2.976 -1.644,0 -2.977,1.332 -2.977,2.976 0,1.644 1.333,2.976 2.977,2.976 C -1.333,2.976 0,1.644 0,0 Z"
             style="fill:none;stroke:#c62027;stroke-width:0.56699997;stroke-linecap:round;stroke-linejoin:round;stroke-miterlimit:4;stroke-dasharray:none;stroke-opacity:1"
             id="path85"
             inkscape:connector-curvature="0" /></g><g
           id="g87"
           transform="translate(290.2756,177.6709)"><path
             d="m 0,0 c 0,-1.644 -1.333,-2.976 -2.976,-2.976 -1.644,0 -2.977,1.332 -2.977,2.976 0,1.644 1.333,2.976 2.977,2.976 C -1.333,2.976 0,1.644 0,0 Z"
             style="fill:none;stroke:#c62027;stroke-width:0.56699997;stroke-linecap:round;stroke-linejoin:round;stroke-miterlimit:4;stroke-dasharray:none;stroke-opacity:1"
             id="path89"
             inkscape:connector-curvature="0" /></g><g
           id="g91"
           transform="translate(290.2756,285.671)"><path
             d="m 0,0 c 0,-1.644 -1.333,-2.976 -2.976,-2.976 -1.644,0 -2.977,1.332 -2.977,2.976 0,1.644 1.333,2.976 2.977,2.976 C -1.333,2.976 0,1.644 0,0 Z"
             style="fill:none;stroke:#c62027;stroke-width:0.56699997;stroke-linecap:round;stroke-linejoin:round;stroke-miterlimit:4;stroke-dasharray:none;stroke-opacity:1"
             id="path93"
             inkscape:connector-curvature="0" /></g><g
           id="g95"
           transform="translate(387.3015,154.9004)"><path
             d="m 0,0 c 0,-1.644 -1.333,-2.976 -2.976,-2.976 -1.644,0 -2.977,1.332 -2.977,2.976 0,1.644 1.333,2.976 2.977,2.976 C -1.333,2.976 0,1.644 0,0 Z"
             style="fill:none;stroke:#c62027;stroke-width:0.56699997;stroke-linecap:round;stroke-linejoin:round;stroke-miterlimit:4;stroke-dasharray:none;stroke-opacity:1"
             id="path97"
             inkscape:connector-curvature="0" /></g><g
           id="g99"
           transform="translate(352.7756,204.6497)"><path
             d="m 0,0 c 0,-1.644 -1.333,-2.976 -2.976,-2.976 -1.644,0 -2.977,1.332 -2.977,2.976 0,1.644 1.333,2.976 2.977,2.976 C -1.333,2.976 0,1.644 0,0 Z"
             style="fill:none;stroke:#c62027;stroke-width:0.56699997;stroke-linecap:round;stroke-linejoin:round;stroke-miterlimit:4;stroke-dasharray:none;stroke-opacity:1"
             id="path101"
             inkscape:connector-curvature="0" /></g><g
           id="g103"
           transform="translate(337.4384,101.8022)"><path
             d="m 0,0 c 0,-1.644 -1.333,-2.976 -2.976,-2.976 -1.644,0 -2.977,1.332 -2.977,2.976 0,1.644 1.333,2.976 2.977,2.976 C -1.333,2.976 0,1.644 0,0 Z"
             style="fill:none;stroke:#c62027;stroke-width:0.56699997;stroke-linecap:round;stroke-linejoin:round;stroke-miterlimit:4;stroke-dasharray:none;stroke-opacity:1"
             id="path105"
             inkscape:connector-curvature="0" /></g><g
           id="g107"
           transform="translate(267.6964,106.1949)"><path
             d="M 0,0 V -1.701 H -2.268 V -37.559 H 0 v -1.701 h 39.26 v 1.701 h 2.268 V -1.701 H 39.26 V 0 Z"
             style="fill:none;stroke:#3a53a4;stroke-width:0.56699997;stroke-linecap:butt;stroke-linejoin:miter;stroke-miterlimit:4;stroke-dasharray:none;stroke-opacity:1"
             id="path109"
             inkscape:connector-curvature="0" /></g><g
           id="g111"
           transform="translate(213.6964,112.9442)"><path
             d="M 0,0 V -1.701 H -2.268 V -37.559 H 0 v -1.701 h 39.26 v 1.701 h 2.268 V -1.701 H 39.26 V 0 Z"
             style="fill:none;stroke:#3a53a4;stroke-width:0.56699997;stroke-linecap:butt;stroke-linejoin:miter;stroke-miterlimit:4;stroke-dasharray:none;stroke-opacity:1"
             id="path113"
             inkscape:connector-curvature="0" /></g><g
           id="g115"
           transform="translate(24.6965,160.1949)"><path
             d="M 0,0 V -1.701 H -2.268 V -37.559 H 0 v -1.701 h 39.26 v 1.701 h 2.268 V -1.701 H 39.26 V 0 Z"
             style="fill:none;stroke:#3a53a4;stroke-width:0.56699997;stroke-linecap:butt;stroke-linejoin:miter;stroke-miterlimit:4;stroke-dasharray:none;stroke-opacity:1"
             id="path117"
             inkscape:connector-curvature="0" /></g><g
           id="g119"
           transform="translate(78.6965,160.1949)"><path
             d="M 0,0 V -1.701 H -2.268 V -37.559 H 0 v -1.701 h 39.26 v 1.701 h 2.268 V -1.701 H 39.26 V 0 Z"
             style="fill:none;stroke:#3a53a4;stroke-width:0.56699997;stroke-linecap:butt;stroke-linejoin:miter;stroke-miterlimit:4;stroke-dasharray:none;stroke-opacity:1"
             id="path121"
             inkscape:connector-curvature="0" /></g><g
           id="g123"
           transform="translate(294.6964,166.9442)"><path
             d="M 0,0 V -1.701 H -2.268 V -37.559 H 0 v -1.701 h 39.26 v 1.701 h 2.268 V -1.701 H 39.26 V 0 Z"
             style="fill:none;stroke:#3a53a4;stroke-width:0.56699997;stroke-linecap:butt;stroke-linejoin:miter;stroke-miterlimit:4;stroke-dasharray:none;stroke-opacity:1"
             id="path125"
             inkscape:connector-curvature="0" /></g><g
           id="g127"
           transform="translate(132.6965,173.6935)"><path
             d="M 0,0 V -1.701 H -2.268 V -37.559 H 0 v -1.701 h 39.26 v 1.701 h 2.268 V -1.701 H 39.26 V 0 Z"
             style="fill:none;stroke:#3a53a4;stroke-width:0.56699997;stroke-linecap:butt;stroke-linejoin:miter;stroke-miterlimit:4;stroke-dasharray:none;stroke-opacity:1"
             id="path129"
             inkscape:connector-curvature="0" /></g><g
           id="g131"
           transform="translate(240.6964,173.6935)"><path
             d="M 0,0 V -1.701 H -2.268 V -37.559 H 0 v -1.701 h 39.26 v 1.701 h 2.268 V -1.701 H 39.26 V 0 Z"
             style="fill:none;stroke:#3a53a4;stroke-width:0.56699997;stroke-linecap:butt;stroke-linejoin:miter;stroke-miterlimit:4;stroke-dasharray:none;stroke-opacity:1"
             id="path133"
             inkscape:connector-curvature="0" /></g><g
           id="g135"
           transform="translate(186.6964,180.4428)"><path
             d="M 0,0 V -1.701 H -2.268 V -37.559 H 0 v -1.701 h 39.26 v 1.701 h 2.268 V -1.701 H 39.26 V 0 Z"
             style="fill:none;stroke:#3a53a4;stroke-width:0.56699997;stroke-linecap:butt;stroke-linejoin:miter;stroke-miterlimit:4;stroke-dasharray:none;stroke-opacity:1"
             id="path137"
             inkscape:connector-curvature="0" /></g><g
           id="g139"
           transform="translate(24.6965,214.1949)"><path
             d="M 0,0 V -1.701 H -2.268 V -37.559 H 0 v -1.701 h 39.26 v 1.701 h 2.268 V -1.701 H 39.26 V 0 Z"
             style="fill:none;stroke:#3a53a4;stroke-width:0.56699997;stroke-linecap:butt;stroke-linejoin:miter;stroke-miterlimit:4;stroke-dasharray:none;stroke-opacity:1"
             id="path141"
             inkscape:connector-curvature="0" /></g><g
           id="g143"
           transform="translate(78.6965,214.1949)"><path
             d="M 0,0 V -1.701 H -2.268 V -37.559 H 0 v -1.701 h 39.26 v 1.701 h 2.268 V -1.701 H 39.26 V 0 Z"
             style="fill:none;stroke:#3a53a4;stroke-width:0.56699997;stroke-linecap:butt;stroke-linejoin:miter;stroke-miterlimit:4;stroke-dasharray:none;stroke-opacity:1"
             id="path145"
             inkscape:connector-curvature="0" /></g><g
           id="g147"
           transform="translate(294.6964,220.9442)"><path
             d="M 0,0 V -1.701 H -2.268 V -37.559 H 0 v -1.701 h 39.26 v 1.701 h 2.268 V -1.701 H 39.26 V 0 Z"
             style="fill:none;stroke:#3a53a4;stroke-width:0.56699997;stroke-linecap:butt;stroke-linejoin:miter;stroke-miterlimit:4;stroke-dasharray:none;stroke-opacity:1"
             id="path149"
             inkscape:connector-curvature="0" /></g><g
           id="g151"
           transform="translate(132.6965,227.6935)"><path
             d="M 0,0 V -1.701 H -2.268 V -37.559 H 0 v -1.701 h 39.26 v 1.701 h 2.268 V -1.701 H 39.26 V 0 Z"
             style="fill:none;stroke:#3a53a4;stroke-width:0.56699997;stroke-linecap:butt;stroke-linejoin:miter;stroke-miterlimit:4;stroke-dasharray:none;stroke-opacity:1"
             id="path153"
             inkscape:connector-curvature="0" /></g><g
           id="g155"
           transform="translate(240.6964,227.6935)"><path
             d="M 0,0 V -1.701 H -2.268 V -37.559 H 0 v -1.701 h 39.26 v 1.701 h 2.268 V -1.701 H 39.26 V 0 Z"
             style="fill:none;stroke:#3a53a4;stroke-width:0.56699997;stroke-linecap:butt;stroke-linejoin:miter;stroke-miterlimit:4;stroke-dasharray:none;stroke-opacity:1"
             id="path157"
             inkscape:connector-curvature="0" /></g><g
           id="g159"
           transform="translate(186.6964,234.4428)"><path
             d="M 0,0 V -1.701 H -2.268 V -37.559 H 0 v -1.701 h 39.26 v 1.701 h 2.268 V -1.701 H 39.26 V 0 Z"
             style="fill:none;stroke:#3a53a4;stroke-width:0.56699997;stroke-linecap:butt;stroke-linejoin:miter;stroke-miterlimit:4;stroke-dasharray:none;stroke-opacity:1"
             id="path161"
             inkscape:connector-curvature="0" /></g><g
           id="g163"
           transform="translate(24.6965,268.1949)"><path
             d="M 0,0 V -1.701 H -2.268 V -37.559 H 0 v -1.701 h 39.26 v 1.701 h 2.268 V -1.701 H 39.26 V 0 Z"
             style="fill:none;stroke:#3a53a4;stroke-width:0.56699997;stroke-linecap:butt;stroke-linejoin:miter;stroke-miterlimit:4;stroke-dasharray:none;stroke-opacity:1"
             id="path165"
             inkscape:connector-curvature="0" /></g><g
           id="g167"
           transform="translate(78.6965,268.1949)"><path
             d="M 0,0 V -1.701 H -2.268 V -37.559 H 0 v -1.701 h 39.26 v 1.701 h 2.268 V -1.701 H 39.26 V 0 Z"
             style="fill:none;stroke:#3a53a4;stroke-width:0.56699997;stroke-linecap:butt;stroke-linejoin:miter;stroke-miterlimit:4;stroke-dasharray:none;stroke-opacity:1"
             id="path169"
             inkscape:connector-curvature="0" /></g><g
           id="g171"
           transform="translate(294.6964,274.9442)"><path
             d="M 0,0 V -1.701 H -2.268 V -37.559 H 0 v -1.701 h 39.26 v 1.701 h 2.268 V -1.701 H 39.26 V 0 Z"
             style="fill:none;stroke:#3a53a4;stroke-width:0.56699997;stroke-linecap:butt;stroke-linejoin:miter;stroke-miterlimit:4;stroke-dasharray:none;stroke-opacity:1"
             id="path173"
             inkscape:connector-curvature="0" /></g><g
           id="g175"
           transform="translate(132.6965,281.6935)"><path
             d="M 0,0 V -1.701 H -2.268 V -37.559 H 0 v -1.701 h 39.26 v 1.701 h 2.268 V -1.701 H 39.26 V 0 Z"
             style="fill:none;stroke:#3a53a4;stroke-width:0.56699997;stroke-linecap:butt;stroke-linejoin:miter;stroke-miterlimit:4;stroke-dasharray:none;stroke-opacity:1"
             id="path177"
             inkscape:connector-curvature="0" /></g><g
           id="g179"
           transform="translate(240.6964,281.6935)"><path
             d="M 0,0 V -1.701 H -2.268 V -37.559 H 0 v -1.701 h 39.26 v 1.701 h 2.268 V -1.701 H 39.26 V 0 Z"
             style="fill:none;stroke:#3a53a4;stroke-width:0.56699997;stroke-linecap:butt;stroke-linejoin:miter;stroke-miterlimit:4;stroke-dasharray:none;stroke-opacity:1"
             id="path181"
             inkscape:connector-curvature="0" /></g><g
           id="g183"
           transform="translate(186.6964,288.4428)"><path
             d="M 0,0 V -1.701 H -2.268 V -37.559 H 0 v -1.701 h 39.26 v 1.701 h 2.268 V -1.701 H 39.26 V 0 Z"
             style="fill:none;stroke:#3a53a4;stroke-width:0.56699997;stroke-linecap:butt;stroke-linejoin:miter;stroke-miterlimit:4;stroke-dasharray:none;stroke-opacity:1"
             id="path185"
             inkscape:connector-curvature="0" /></g><g
           id="g187"
           transform="translate(24.6965,322.1949)"><path
             d="M 0,0 V -1.701 H -2.268 V -37.559 H 0 v -1.701 h 39.26 v 1.701 h 2.268 V -1.701 H 39.26 V 0 Z"
             style="fill:none;stroke:#3a53a4;stroke-width:0.56699997;stroke-linecap:butt;stroke-linejoin:miter;stroke-miterlimit:4;stroke-dasharray:none;stroke-opacity:1"
             id="path189"
             inkscape:connector-curvature="0" /></g><g
           id="g191"
           transform="translate(78.6965,322.1949)"><path
             d="M 0,0 V -1.701 H -2.268 V -37.559 H 0 v -1.701 h 39.26 v 1.701 h 2.268 V -1.701 H 39.26 V 0 Z"
             style="fill:none;stroke:#3a53a4;stroke-width:0.56699997;stroke-linecap:butt;stroke-linejoin:miter;stroke-miterlimit:4;stroke-dasharray:none;stroke-opacity:1"
             id="path193"
             inkscape:connector-curvature="0" /></g><g
           id="g195"
           transform="translate(294.6964,328.9442)"><path
             d="M 0,0 V -1.701 H -2.268 V -37.559 H 0 v -1.701 h 39.26 v 1.701 h 2.268 V -1.701 H 39.26 V 0 Z"
             style="fill:none;stroke:#3a53a4;stroke-width:0.56699997;stroke-linecap:butt;stroke-linejoin:miter;stroke-miterlimit:4;stroke-dasharray:none;stroke-opacity:1"
             id="path197"
             inkscape:connector-curvature="0" /></g><g
           id="g199"
           transform="translate(132.6965,335.6935)"><path
             d="M 0,0 V -1.701 H -2.268 V -37.559 H 0 v -1.701 h 39.26 v 1.701 h 2.268 V -1.701 H 39.26 V 0 Z"
             style="fill:none;stroke:#3a53a4;stroke-width:0.56699997;stroke-linecap:butt;stroke-linejoin:miter;stroke-miterlimit:4;stroke-dasharray:none;stroke-opacity:1"
             id="path201"
             inkscape:connector-curvature="0" /></g><g
           id="g203"
           transform="translate(240.6964,335.6935)"><path
             d="M 0,0 V -1.701 H -2.268 V -37.559 H 0 v -1.701 h 39.26 v 1.701 h 2.268 V -1.701 H 39.26 V 0 Z"
             style="fill:none;stroke:#3a53a4;stroke-width:0.56699997;stroke-linecap:butt;stroke-linejoin:miter;stroke-miterlimit:4;stroke-dasharray:none;stroke-opacity:1"
             id="path205"
             inkscape:connector-curvature="0" /></g><g
           id="g207"
           transform="translate(186.6964,342.4428)"><path
             d="M 0,0 V -1.701 H -2.268 V -37.559 H 0 v -1.701 h 39.26 v 1.701 h 2.268 V -1.701 H 39.26 V 0 Z"
             style="fill:none;stroke:#3a53a4;stroke-width:0.56699997;stroke-linecap:butt;stroke-linejoin:miter;stroke-miterlimit:4;stroke-dasharray:none;stroke-opacity:1"
             id="path209"
             inkscape:connector-curvature="0" /></g><g
           id="g211"
           transform="translate(401.847,117.0818)"><path
             d="m 0,0 -1.472,0.85 1.15,1.992 -31.091,17.95 -1.15,-1.992 -1.472,0.85 -4.2,-7.275 -1.818,1.05 -4.45,-7.707 1.818,-1.05 -29.3,-50.749 -1.818,1.05 -4.45,-7.708 1.818,-1.05 -4.2,-7.275 1.472,-0.85 -1.15,-1.991 31.091,-17.95 1.15,1.991 1.472,-0.85 z"
             style="fill:none;stroke:#3a53a4;stroke-width:0.56699997;stroke-linecap:butt;stroke-linejoin:miter;stroke-miterlimit:4;stroke-dasharray:none;stroke-opacity:1"
             id="path213"
             inkscape:connector-curvature="0" /></g><g
           id="g215"
           transform="translate(357.4027,0.288)"><path
             d="m 0,0 c -1.479,0 -2.947,0.386 -4.251,1.139 l -7.367,4.252 c -44.287,25.556 -80.755,29.623 -116.022,33.555 -9.195,1.026 -18.674,2.083 -28.017,3.499 l -7.231,1.098 c -4.156,0.631 -7.227,4.204 -7.227,8.407 v 35.804 c 0,4.694 -3.805,8.5 -8.5,8.5 h -169.996 c -4.696,0 -8.504,3.807 -8.504,8.504 V 335.78 c 0,3.845 2.581,7.212 6.294,8.212 l 6.294,1.694 c 83.241,22.402 150.993,33.292 207.129,33.292 52.284,0 94.61,-9.163 129.394,-28.013 l 4.452,-2.413 C -0.808,347.066 0.9,344.196 0.9,341.076 V 201.012 c 0,-19.587 20.162,-34.533 65.358,-60.625 l 7.361,-4.25 c 4.066,-2.348 5.46,-7.546 3.114,-11.614 L 7.366,4.255 C 6.239,2.301 4.382,0.875 2.203,0.29 1.479,0.096 0.738,0 0,0 Z"
             style="fill:none;stroke:#d72227;stroke-width:0.56699997;stroke-linecap:round;stroke-linejoin:round;stroke-miterlimit:4;stroke-dasharray:none;stroke-opacity:1"
             id="path217"
             inkscape:connector-curvature="0" /></g></g></g></g></svg>